<svg width="259" height="172" viewBox="0 0 259 172" fill="none" xmlns="http://www.w3.org/2000/svg">
<rect x="0.0366211" y="25.804" width="36.8634" height="29.0439" fill="white"/>
<rect x="36.8999" y="25.804" width="36.8634" height="29.0439" fill="white"/>
<path d="M54.4387 37.5079V42.2991H53.8333V38.2639L52.6126 38.7089V38.1624L54.3438 37.5079H54.4387Z" fill="#172755"/>
<rect x="73.7632" y="25.804" width="36.8634" height="29.0439" fill="white"/>
<path d="M92.4343 41.8016V42.2991H89.3155V41.8638L90.8765 40.126C91.0685 39.9122 91.2169 39.7311 91.3216 39.5828C91.4285 39.4322 91.5027 39.298 91.5442 39.1802C91.5878 39.0602 91.6096 38.938 91.6096 38.8137C91.6096 38.6566 91.5769 38.5148 91.5114 38.3882C91.4482 38.2595 91.3544 38.157 91.23 38.0806C91.1056 38.0042 90.9551 37.966 90.7784 37.966C90.5667 37.966 90.39 38.0075 90.2482 38.0904C90.1086 38.1711 90.0038 38.2846 89.934 38.4308C89.8642 38.5769 89.8293 38.7449 89.8293 38.9348H89.2238C89.2238 38.6664 89.2827 38.421 89.4006 38.1984C89.5184 37.9759 89.6929 37.7991 89.9242 37.6682C90.1555 37.5351 90.4402 37.4686 90.7784 37.4686C91.0794 37.4686 91.3369 37.5221 91.5507 37.629C91.7645 37.7337 91.9282 37.8821 92.0416 38.074C92.1572 38.2639 92.2151 38.4864 92.2151 38.7417C92.2151 38.8813 92.1911 39.0231 92.1431 39.1671C92.0972 39.3089 92.0329 39.4508 91.95 39.5926C91.8693 39.7344 91.7743 39.874 91.6653 40.0115C91.5583 40.1489 91.4438 40.2842 91.3216 40.4173L90.0453 41.8016H92.4343Z" fill="#172755"/>
<rect x="110.627" y="25.804" width="36.8634" height="29.0439" fill="white"/>
<path d="M127.06 39.6188H127.492C127.703 39.6188 127.878 39.5838 128.015 39.514C128.155 39.442 128.258 39.3449 128.326 39.2228C128.396 39.0984 128.431 38.9588 128.431 38.8039C128.431 38.6206 128.4 38.4668 128.339 38.3424C128.278 38.218 128.186 38.1242 128.064 38.061C127.942 37.9977 127.787 37.966 127.6 37.966C127.429 37.966 127.279 37.9999 127.148 38.0675C127.019 38.133 126.918 38.2268 126.844 38.349C126.772 38.4711 126.736 38.6151 126.736 38.7809H126.13C126.13 38.5388 126.191 38.3184 126.313 38.1199C126.436 37.9213 126.607 37.7631 126.827 37.6453C127.05 37.5275 127.307 37.4686 127.6 37.4686C127.888 37.4686 128.14 37.5199 128.356 37.6224C128.572 37.7228 128.74 37.8733 128.86 38.074C128.98 38.2726 129.04 38.5202 129.04 38.8169C129.04 38.9369 129.011 39.0657 128.954 39.2031C128.9 39.3384 128.814 39.4649 128.696 39.5828C128.58 39.7006 128.43 39.7977 128.244 39.874C128.059 39.9482 127.836 39.9853 127.577 39.9853H127.06V39.6188ZM127.06 40.1162V39.7529H127.577C127.88 39.7529 128.131 39.7889 128.329 39.8609C128.528 39.9329 128.684 40.0289 128.797 40.1489C128.913 40.2689 128.994 40.4009 129.04 40.5449C129.088 40.6867 129.112 40.8286 129.112 40.9704C129.112 41.1929 129.073 41.3904 128.997 41.5627C128.923 41.7351 128.817 41.8813 128.68 42.0013C128.544 42.1213 128.385 42.2118 128.202 42.2729C128.018 42.334 127.819 42.3645 127.603 42.3645C127.396 42.3645 127.2 42.3351 127.017 42.2762C126.836 42.2173 126.676 42.1322 126.536 42.0209C126.396 41.9074 126.287 41.7689 126.209 41.6053C126.13 41.4394 126.091 41.2507 126.091 41.0391H126.696C126.696 41.2049 126.732 41.35 126.804 41.4744C126.879 41.5987 126.983 41.6958 127.119 41.7656C127.256 41.8333 127.417 41.8671 127.603 41.8671C127.788 41.8671 127.948 41.8354 128.081 41.7722C128.216 41.7067 128.32 41.6085 128.392 41.4776C128.466 41.3467 128.503 41.182 128.503 40.9835C128.503 40.7849 128.461 40.6224 128.378 40.4958C128.296 40.3671 128.178 40.2722 128.025 40.2111C127.874 40.1478 127.697 40.1162 127.492 40.1162H127.06Z" fill="#172755"/>
<rect x="147.49" y="25.804" width="36.8634" height="29.0439" fill="white"/>
<path d="M166.26 40.6955V41.1929H162.817V40.8362L164.95 37.5341H165.445L164.914 38.4897L163.504 40.6955H166.26ZM165.595 37.5341V42.2991H164.99V37.5341H165.595Z" fill="#172755"/>
<rect x="184.354" y="25.804" width="36.8634" height="29.0439" fill="white"/>
<path d="M200.668 40.0311L200.184 39.9067L200.423 37.5341H202.868V38.0937H200.937L200.793 39.3897C200.88 39.3395 200.99 39.2926 201.123 39.2489C201.259 39.2053 201.413 39.1835 201.588 39.1835C201.808 39.1835 202.006 39.2217 202.18 39.298C202.355 39.3722 202.503 39.4791 202.625 39.6188C202.75 39.7584 202.845 39.9264 202.91 40.1227C202.976 40.3191 203.008 40.5384 203.008 40.7806C203.008 41.0096 202.977 41.2202 202.913 41.4122C202.852 41.6042 202.76 41.7722 202.635 41.9162C202.511 42.058 202.354 42.1682 202.164 42.2467C201.976 42.3253 201.755 42.3645 201.5 42.3645C201.308 42.3645 201.125 42.3383 200.953 42.286C200.783 42.2314 200.63 42.1496 200.495 42.0405C200.362 41.9293 200.253 41.7918 200.168 41.6282C200.085 41.4624 200.032 41.2682 200.011 41.0456H200.587C200.613 41.2245 200.665 41.3751 200.744 41.4973C200.822 41.6194 200.925 41.7122 201.051 41.7754C201.18 41.8365 201.329 41.8671 201.5 41.8671C201.644 41.8671 201.771 41.842 201.883 41.7918C201.994 41.7416 202.088 41.6696 202.164 41.5758C202.24 41.482 202.298 41.3685 202.337 41.2355C202.379 41.1024 202.4 40.9529 202.4 40.7871C202.4 40.6366 202.379 40.4969 202.337 40.3682C202.296 40.2395 202.234 40.1271 202.151 40.0311C202.07 39.9351 201.971 39.8609 201.853 39.8086C201.735 39.754 201.6 39.7267 201.447 39.7267C201.244 39.7267 201.091 39.754 200.986 39.8086C200.883 39.8631 200.777 39.9373 200.668 40.0311Z" fill="#172755"/>
<rect x="221.217" y="25.804" width="36.8634" height="29.0439" fill="white"/>
<path d="M239.089 37.5275H239.142V38.0413H239.089C238.769 38.0413 238.5 38.0937 238.284 38.1984C238.068 38.301 237.897 38.4395 237.771 38.614C237.644 38.7864 237.552 38.9806 237.496 39.1966C237.441 39.4126 237.414 39.6318 237.414 39.8544V40.5547C237.414 40.7664 237.439 40.954 237.489 41.1176C237.539 41.2791 237.608 41.4154 237.695 41.5267C237.783 41.638 237.881 41.722 237.99 41.7787C238.101 41.8354 238.217 41.8638 238.337 41.8638C238.476 41.8638 238.601 41.8376 238.71 41.7853C238.819 41.7307 238.911 41.6554 238.985 41.5594C239.061 41.4613 239.119 41.3456 239.158 41.2125C239.197 41.0795 239.217 40.9333 239.217 40.774C239.217 40.6322 239.2 40.4958 239.165 40.3649C239.13 40.2318 239.076 40.114 239.004 40.0115C238.932 39.9067 238.842 39.8249 238.733 39.766C238.626 39.7049 238.498 39.6744 238.35 39.6744C238.182 39.6744 238.025 39.7158 237.879 39.7987C237.735 39.8795 237.616 39.9864 237.522 40.1195C237.43 40.2504 237.378 40.3933 237.365 40.5482L237.044 40.5449C237.075 40.3006 237.131 40.0922 237.214 39.9198C237.299 39.7453 237.404 39.6035 237.528 39.4944C237.655 39.3831 237.796 39.3024 237.951 39.2522C238.108 39.1998 238.273 39.1737 238.448 39.1737C238.686 39.1737 238.891 39.2184 239.063 39.3078C239.236 39.3973 239.377 39.5173 239.489 39.6678C239.6 39.8162 239.682 39.9842 239.734 40.1718C239.789 40.3573 239.816 40.5482 239.816 40.7446C239.816 40.9693 239.784 41.1798 239.721 41.3762C239.658 41.5725 239.563 41.7449 239.436 41.8933C239.312 42.0416 239.158 42.1573 238.975 42.2402C238.792 42.3231 238.579 42.3645 238.337 42.3645C238.079 42.3645 237.855 42.3122 237.663 42.2074C237.471 42.1005 237.311 41.9587 237.185 41.782C237.058 41.6053 236.963 41.4089 236.9 41.1929C236.837 40.9769 236.805 40.7576 236.805 40.5351V40.2504C236.805 39.9144 236.839 39.5849 236.907 39.262C236.974 38.9391 237.091 38.6468 237.257 38.385C237.425 38.1231 237.657 37.9148 237.954 37.7599C238.251 37.605 238.629 37.5275 239.089 37.5275Z" fill="#172755"/>
<rect x="0.0366211" y="54.8479" width="36.8634" height="29.0439" fill="white"/>
<path d="M18.6652 66.578V66.9184L16.6918 71.343H16.0536L18.0238 67.0754H15.4449V66.578H18.6652Z" fill="#172755"/>
<rect x="36.8999" y="54.8479" width="36.8634" height="29.0439" fill="white"/>
<circle cx="55.0526" cy="69.0906" r="10.8915" fill="#0088F0"/>
<path d="M55.4532 70.0536C55.4532 70.3438 55.3856 70.5903 55.2503 70.7932C55.1172 70.9939 54.9362 71.1467 54.7071 71.2514C54.4802 71.3561 54.2238 71.4085 53.938 71.4085C53.6522 71.4085 53.3947 71.3561 53.1656 71.2514C52.9365 71.1467 52.7555 70.9939 52.6224 70.7932C52.4893 70.5903 52.4227 70.3438 52.4227 70.0536C52.4227 69.8638 52.4587 69.6903 52.5307 69.5332C52.6049 69.374 52.7086 69.2354 52.8416 69.1176C52.9769 68.9998 53.1362 68.9092 53.3195 68.846C53.5049 68.7805 53.7089 68.7478 53.9314 68.7478C54.2238 68.7478 54.4845 68.8045 54.7136 68.918C54.9427 69.0292 55.1227 69.1831 55.2536 69.3794C55.3867 69.5758 55.4532 69.8005 55.4532 70.0536ZM54.8445 70.0405C54.8445 69.8638 54.8063 69.7078 54.73 69.5725C54.6536 69.435 54.5467 69.3281 54.4093 69.2518C54.2718 69.1754 54.1125 69.1372 53.9314 69.1372C53.746 69.1372 53.5856 69.1754 53.4504 69.2518C53.3173 69.3281 53.2136 69.435 53.1395 69.5725C53.0653 69.7078 53.0282 69.8638 53.0282 70.0405C53.0282 70.2238 53.0642 70.3809 53.1362 70.5118C53.2104 70.6405 53.3151 70.7398 53.4504 70.8096C53.5878 70.8772 53.7504 70.911 53.938 70.911C54.1256 70.911 54.2871 70.8772 54.4223 70.8096C54.5576 70.7398 54.6612 70.6405 54.7332 70.5118C54.8074 70.3809 54.8445 70.2238 54.8445 70.0405ZM55.342 67.8183C55.342 68.0496 55.2809 68.258 55.1587 68.4434C55.0365 68.6289 54.8696 68.7751 54.658 68.882C54.4463 68.9889 54.2063 69.0423 53.938 69.0423C53.6653 69.0423 53.422 68.9889 53.2082 68.882C52.9965 68.7751 52.8307 68.6289 52.7107 68.4434C52.5907 68.258 52.5307 68.0496 52.5307 67.8183C52.5307 67.5413 52.5907 67.3056 52.7107 67.1114C52.8329 66.9173 52.9998 66.7689 53.2115 66.6664C53.4231 66.5638 53.6642 66.5125 53.9347 66.5125C54.2074 66.5125 54.4496 66.5638 54.6612 66.6664C54.8729 66.7689 55.0387 66.9173 55.1587 67.1114C55.2809 67.3056 55.342 67.5413 55.342 67.8183ZM54.7365 67.8282C54.7365 67.6689 54.7027 67.5282 54.6351 67.406C54.5674 67.2838 54.4736 67.1878 54.3536 67.118C54.2336 67.046 54.094 67.01 53.9347 67.01C53.7754 67.01 53.6358 67.0438 53.5158 67.1114C53.398 67.1769 53.3053 67.2707 53.2376 67.3929C53.1722 67.5151 53.1395 67.6602 53.1395 67.8282C53.1395 67.9918 53.1722 68.1347 53.2376 68.2569C53.3053 68.3791 53.3991 68.474 53.5191 68.5416C53.6391 68.6092 53.7787 68.6431 53.938 68.6431C54.0973 68.6431 54.2358 68.6092 54.3536 68.5416C54.4736 68.474 54.5674 68.3791 54.6351 68.2569C54.7027 68.1347 54.7365 67.9918 54.7365 67.8282Z" fill="#EEEEF7"/>
<rect x="73.7632" y="54.8479" width="36.8634" height="29.0439" fill="white"/>
<circle cx="91.9154" cy="69.0906" r="10.8915" fill="#0088F0"/>
<path d="M89.9144 70.8358H89.9766C90.3256 70.8358 90.6093 70.7867 90.8275 70.6885C91.0456 70.5903 91.2136 70.4583 91.3314 70.2925C91.4493 70.1267 91.53 69.9401 91.5736 69.7329C91.6173 69.5234 91.6391 69.3085 91.6391 69.0881V68.3583C91.6391 68.1423 91.614 67.9503 91.5638 67.7823C91.5158 67.6143 91.4482 67.4736 91.3609 67.3602C91.2758 67.2467 91.1787 67.1605 91.0696 67.1016C90.9605 67.0427 90.8449 67.0133 90.7227 67.0133C90.5831 67.0133 90.4576 67.0416 90.3464 67.0984C90.2373 67.1529 90.1446 67.2304 90.0682 67.3307C89.994 67.4311 89.9373 67.5489 89.898 67.6842C89.8587 67.8194 89.8391 67.9667 89.8391 68.126C89.8391 68.2678 89.8566 68.4052 89.8915 68.5383C89.9264 68.6714 89.9798 68.7914 90.0518 68.8983C90.1238 69.0052 90.2133 69.0903 90.3202 69.1536C90.4293 69.2147 90.5569 69.2452 90.7031 69.2452C90.8384 69.2452 90.9649 69.2191 91.0827 69.1667C91.2027 69.1121 91.3085 69.0391 91.4002 68.9474C91.494 68.8536 91.5682 68.7478 91.6227 68.63C91.6794 68.5122 91.7122 68.3889 91.7209 68.2602H92.0089C92.0089 68.4412 91.9729 68.6202 91.9009 68.7969C91.8311 68.9714 91.7329 69.1307 91.6063 69.2747C91.4798 69.4187 91.3314 69.5343 91.1613 69.6216C90.9911 69.7067 90.8056 69.7492 90.6049 69.7492C90.3693 69.7492 90.1653 69.7034 89.9929 69.6118C89.8206 69.5201 89.6787 69.398 89.5675 69.2452C89.4584 69.0925 89.3766 68.9223 89.322 68.7347C89.2697 68.5449 89.2435 68.3529 89.2435 68.1587C89.2435 67.9318 89.2751 67.7191 89.3384 67.5205C89.4017 67.322 89.4955 67.1474 89.6198 66.9969C89.7442 66.8442 89.898 66.7253 90.0813 66.6402C90.2667 66.5551 90.4805 66.5125 90.7227 66.5125C90.9954 66.5125 91.2278 66.5671 91.4198 66.6762C91.6118 66.7853 91.7678 66.9315 91.8878 67.1147C92.01 67.298 92.0994 67.5042 92.1562 67.7333C92.2129 67.9623 92.2412 68.198 92.2412 68.4402V68.6594C92.2412 68.906 92.2249 69.1569 92.1922 69.4121C92.1616 69.6652 92.1016 69.9074 92.0122 70.1387C91.9249 70.3699 91.7973 70.5772 91.6293 70.7605C91.4613 70.9416 91.242 71.0856 90.9714 71.1925C90.7031 71.2972 90.3715 71.3496 89.9766 71.3496H89.9144V70.8358Z" fill="#EEEEF7"/>
<rect x="110.627" y="54.8479" width="36.8634" height="29.0439" fill="white"/>
<circle cx="128.78" cy="69.0906" r="10.8915" fill="#0088F0"/>
<path d="M126.046 66.5518V71.343H125.441V67.3078L124.22 67.7529V67.2064L125.951 66.5518H126.046ZM130.818 68.5809V69.3074C130.818 69.698 130.783 70.0274 130.713 70.2958C130.643 70.5641 130.543 70.7801 130.412 70.9438C130.281 71.1074 130.123 71.2263 129.938 71.3005C129.754 71.3725 129.547 71.4085 129.316 71.4085C129.132 71.4085 128.963 71.3856 128.808 71.3397C128.654 71.2939 128.514 71.2208 128.39 71.1205C128.267 71.0179 128.163 70.8848 128.075 70.7212C127.988 70.5576 127.922 70.359 127.876 70.1256C127.83 69.8921 127.807 69.6194 127.807 69.3074V68.5809C127.807 68.1903 127.842 67.8631 127.912 67.5991C127.984 67.3351 128.085 67.1234 128.216 66.9642C128.347 66.8027 128.504 66.6871 128.687 66.6173C128.873 66.5475 129.08 66.5125 129.309 66.5125C129.495 66.5125 129.665 66.5355 129.82 66.5813C129.977 66.6249 130.116 66.6958 130.239 66.794C130.361 66.89 130.464 67.0187 130.55 67.1802C130.637 67.3394 130.703 67.5347 130.749 67.766C130.795 67.9973 130.818 68.2689 130.818 68.5809ZM130.209 69.4056V68.4794C130.209 68.2656 130.196 68.078 130.17 67.9165C130.146 67.7529 130.11 67.6133 130.062 67.4976C130.014 67.382 129.953 67.2882 129.879 67.2162C129.807 67.1442 129.723 67.0918 129.627 67.0591C129.533 67.0242 129.427 67.0067 129.309 67.0067C129.165 67.0067 129.038 67.034 128.926 67.0885C128.815 67.1409 128.721 67.2249 128.645 67.3405C128.571 67.4562 128.514 67.6078 128.475 67.7954C128.435 67.9831 128.416 68.2111 128.416 68.4794V69.4056C128.416 69.6194 128.428 69.8081 128.452 69.9718C128.478 70.1354 128.516 70.2772 128.566 70.3972C128.616 70.515 128.678 70.6121 128.75 70.6885C128.822 70.7648 128.904 70.8216 128.998 70.8587C129.094 70.8936 129.2 70.911 129.316 70.911C129.464 70.911 129.594 70.8827 129.705 70.8259C129.816 70.7692 129.909 70.6808 129.983 70.5608C130.06 70.4387 130.116 70.2827 130.154 70.0929C130.191 69.9009 130.209 69.6718 130.209 69.4056Z" fill="#EEEEF7"/>
<rect x="147.49" y="54.8479" width="36.8634" height="29.0439" fill="white"/>
<path d="M162.91 66.5518V71.343H162.304V67.3078L161.083 67.7529V67.2064L162.815 66.5518H162.91ZM166.68 66.5518V71.343H166.074V67.3078L164.854 67.7529V67.2064L166.585 66.5518H166.68Z" fill="#172755"/>
<rect x="184.354" y="54.8479" width="36.8634" height="29.0439" fill="white"/>
<path d="M199.773 66.5518V71.343H199.168V67.3078L197.947 67.7529V67.2064L199.678 66.5518H199.773ZM204.676 70.8456V71.343H201.557V70.9078L203.118 69.17C203.31 68.9561 203.458 68.7751 203.563 68.6267C203.67 68.4762 203.744 68.342 203.786 68.2242C203.829 68.1042 203.851 67.982 203.851 67.8576C203.851 67.7005 203.818 67.5587 203.753 67.4322C203.69 67.3034 203.596 67.2009 203.471 67.1245C203.347 67.0482 203.197 67.01 203.02 67.01C202.808 67.01 202.632 67.0514 202.49 67.1344C202.35 67.2151 202.245 67.3285 202.176 67.4747C202.106 67.6209 202.071 67.7889 202.071 67.9787H201.465C201.465 67.7103 201.524 67.4649 201.642 67.2424C201.76 67.0198 201.934 66.8431 202.166 66.7122C202.397 66.5791 202.682 66.5125 203.02 66.5125C203.321 66.5125 203.578 66.566 203.792 66.6729C204.006 66.7776 204.17 66.926 204.283 67.118C204.399 67.3078 204.457 67.5304 204.457 67.7856C204.457 67.9253 204.433 68.0671 204.385 68.2111C204.339 68.3529 204.274 68.4947 204.191 68.6365C204.111 68.7783 204.016 68.918 203.907 69.0554C203.8 69.1929 203.685 69.3281 203.563 69.4612L202.287 70.8456H204.676Z" fill="#172755"/>
<rect x="221.217" y="54.8479" width="36.8634" height="29.0439" fill="white"/>
<path d="M236.636 66.5518V71.343H236.031V67.3078L234.81 67.7529V67.2064L236.541 66.5518H236.636ZM239.3 68.6627H239.732C239.944 68.6627 240.118 68.6278 240.256 68.558C240.395 68.486 240.499 68.3889 240.567 68.2667C240.636 68.1423 240.671 68.0027 240.671 67.8478C240.671 67.6645 240.641 67.5107 240.58 67.3864C240.519 67.262 240.427 67.1682 240.305 67.1049C240.183 67.0416 240.028 67.01 239.84 67.01C239.67 67.01 239.519 67.0438 239.388 67.1114C239.26 67.1769 239.158 67.2707 239.084 67.3929C239.012 67.5151 238.976 67.6591 238.976 67.8249H238.371C238.371 67.5827 238.432 67.3624 238.554 67.1638C238.676 66.9653 238.847 66.8071 239.068 66.6893C239.29 66.5715 239.548 66.5125 239.84 66.5125C240.128 66.5125 240.38 66.5638 240.596 66.6664C240.812 66.7667 240.98 66.9173 241.1 67.118C241.22 67.3165 241.28 67.5642 241.28 67.8609C241.28 67.9809 241.252 68.1096 241.195 68.2471C241.14 68.3823 241.054 68.5089 240.936 68.6267C240.821 68.7445 240.67 68.8416 240.485 68.918C240.299 68.9921 240.077 69.0292 239.817 69.0292H239.3V68.6627ZM239.3 69.1601V68.7969H239.817C240.12 68.7969 240.371 68.8329 240.57 68.9049C240.768 68.9769 240.924 69.0729 241.038 69.1929C241.154 69.3129 241.234 69.4449 241.28 69.5889C241.328 69.7307 241.352 69.8725 241.352 70.0143C241.352 70.2369 241.314 70.4343 241.238 70.6067C241.163 70.779 241.058 70.9252 240.92 71.0452C240.785 71.1652 240.626 71.2557 240.442 71.3168C240.259 71.3779 240.059 71.4085 239.843 71.4085C239.636 71.4085 239.441 71.379 239.258 71.3201C239.076 71.2612 238.916 71.1761 238.776 71.0648C238.637 70.9514 238.528 70.8128 238.449 70.6492C238.371 70.4834 238.331 70.2947 238.331 70.083H238.937C238.937 70.2489 238.973 70.3939 239.045 70.5183C239.119 70.6427 239.224 70.7398 239.359 70.8096C239.496 70.8772 239.658 70.911 239.843 70.911C240.029 70.911 240.188 70.8794 240.321 70.8161C240.456 70.7507 240.56 70.6525 240.632 70.5216C240.706 70.3907 240.743 70.2259 240.743 70.0274C240.743 69.8289 240.702 69.6663 240.619 69.5398C240.536 69.411 240.418 69.3161 240.266 69.2551C240.115 69.1918 239.937 69.1601 239.732 69.1601H239.3Z" fill="#172755"/>
<rect x="0.0366211" y="83.8918" width="36.8634" height="29.0439" fill="white"/>
<path d="M15.456 95.5958V100.387H14.8505V96.3518L13.6298 96.7968V96.2503L15.3611 95.5958H15.456ZM20.4566 98.7834V99.2808H17.0138V98.9241L19.1476 95.6219H19.6417L19.1116 96.5776L17.701 98.7834H20.4566ZM19.7923 95.6219V100.387H19.1868V95.6219H19.7923Z" fill="#172755"/>
<rect x="36.8999" y="83.8918" width="36.8634" height="29.0439" fill="white"/>
<path d="M52.3193 95.5958V100.387H51.7138V96.3518L50.4931 96.7968V96.2503L52.2244 95.5958H52.3193ZM54.8654 98.119L54.3811 97.9946L54.62 95.6219H57.0647V96.1816H55.1338L54.9898 97.4776C55.077 97.4274 55.1872 97.3805 55.3203 97.3368C55.4556 97.2932 55.6105 97.2714 55.785 97.2714C56.0054 97.2714 56.2028 97.3096 56.3774 97.3859C56.5519 97.4601 56.7003 97.567 56.8225 97.7066C56.9468 97.8463 57.0417 98.0143 57.1072 98.2106C57.1726 98.407 57.2054 98.6263 57.2054 98.8684C57.2054 99.0975 57.1737 99.3081 57.1105 99.5001C57.0494 99.6921 56.9567 99.8601 56.8323 100.004C56.7079 100.146 56.5508 100.256 56.361 100.335C56.1734 100.413 55.9519 100.452 55.6967 100.452C55.5047 100.452 55.3225 100.426 55.1501 100.374C54.98 100.319 54.8272 100.238 54.692 100.128C54.5589 100.017 54.4498 99.8797 54.3647 99.7161C54.2818 99.5502 54.2294 99.3561 54.2076 99.1335H54.7836C54.8098 99.3124 54.8621 99.463 54.9407 99.5852C55.0192 99.7073 55.1218 99.8001 55.2483 99.8633C55.377 99.9244 55.5265 99.955 55.6967 99.955C55.8407 99.955 55.9683 99.9299 56.0796 99.8797C56.1908 99.8295 56.2847 99.7575 56.361 99.6637C56.4374 99.5699 56.4952 99.4564 56.5345 99.3233C56.5759 99.1903 56.5967 99.0408 56.5967 98.875C56.5967 98.7244 56.5759 98.5848 56.5345 98.4561C56.493 98.3274 56.4308 98.215 56.3479 98.119C56.2672 98.023 56.1679 97.9488 56.0501 97.8965C55.9323 97.8419 55.797 97.8146 55.6443 97.8146C55.4414 97.8146 55.2876 97.8419 55.1829 97.8965C55.0803 97.951 54.9745 98.0252 54.8654 98.119Z" fill="#172755"/>
<rect x="73.7632" y="83.8918" width="36.8634" height="29.0439" fill="white"/>
<path d="M89.1826 95.5958V100.387H88.5771V96.3518L87.3564 96.7968V96.2503L89.0876 95.5958H89.1826ZM93.2865 95.6154H93.3389V96.1292H93.2865C92.9658 96.1292 92.6974 96.1816 92.4814 96.2863C92.2654 96.3888 92.0941 96.5274 91.9676 96.7019C91.8411 96.8743 91.7494 97.0685 91.6927 97.2845C91.6382 97.5005 91.6109 97.7197 91.6109 97.9423V98.6426C91.6109 98.8543 91.636 99.0419 91.6861 99.2055C91.7363 99.367 91.8051 99.5033 91.8923 99.6146C91.9796 99.7259 92.0778 99.8099 92.1869 99.8666C92.2981 99.9233 92.4138 99.9517 92.5338 99.9517C92.6734 99.9517 92.7978 99.9255 92.9069 99.8732C93.0159 99.8186 93.1076 99.7433 93.1818 99.6473C93.2581 99.5492 93.3159 99.4335 93.3552 99.3004C93.3945 99.1673 93.4141 99.0212 93.4141 98.8619C93.4141 98.7201 93.3967 98.5837 93.3618 98.4528C93.3269 98.3197 93.2734 98.2019 93.2014 98.0994C93.1294 97.9946 93.0389 97.9128 92.9298 97.8539C92.8229 97.7928 92.6952 97.7623 92.5469 97.7623C92.3789 97.7623 92.2218 97.8037 92.0756 97.8866C91.9316 97.9674 91.8127 98.0743 91.7189 98.2074C91.6272 98.3383 91.5749 98.4812 91.5618 98.6361L91.2411 98.6328C91.2716 98.3884 91.3283 98.1801 91.4112 98.0077C91.4963 97.8332 91.6011 97.6914 91.7254 97.5823C91.852 97.471 91.9927 97.3903 92.1476 97.3401C92.3047 97.2877 92.4705 97.2616 92.645 97.2616C92.8829 97.2616 93.0879 97.3063 93.2603 97.3957C93.4327 97.4852 93.5745 97.6052 93.6858 97.7557C93.797 97.9041 93.8788 98.0721 93.9312 98.2597C93.9857 98.4452 94.013 98.6361 94.013 98.8324C94.013 99.0572 93.9814 99.2677 93.9181 99.4641C93.8548 99.6604 93.7599 99.8328 93.6334 99.9812C93.509 100.13 93.3552 100.245 93.1719 100.328C92.9887 100.411 92.776 100.452 92.5338 100.452C92.2763 100.452 92.0516 100.4 91.8596 100.295C91.6676 100.188 91.5083 100.047 91.3818 99.8699C91.2552 99.6932 91.1603 99.4968 91.0971 99.2808C91.0338 99.0648 91.0022 98.8455 91.0022 98.623V98.3383C91.0022 98.0023 91.036 97.6728 91.1036 97.3499C91.1712 97.027 91.288 96.7347 91.4538 96.4728C91.6218 96.211 91.8541 96.0027 92.1509 95.8478C92.4476 95.6929 92.8261 95.6154 93.2865 95.6154Z" fill="#172755"/>
<rect x="110.627" y="83.8918" width="36.8634" height="29.0439" fill="white"/>
<path d="M126.046 95.5958V100.387H125.441V96.3518L124.22 96.7968V96.2503L125.951 95.5958H126.046ZM130.906 95.6219V95.9623L128.933 100.387H128.295L130.265 96.1194H127.686V95.6219H130.906Z" fill="#172755"/>
<rect x="147.49" y="83.8918" width="36.8634" height="29.0439" fill="white"/>
<circle cx="165.642" cy="98.1345" r="10.8915" fill="#EF2A82"/>
<path d="M162.91 95.5958V100.387H162.304V96.3518L161.083 96.7968V96.2503L162.815 95.5958H162.91ZM167.694 99.0975C167.694 99.3877 167.627 99.6342 167.491 99.8372C167.358 100.038 167.177 100.191 166.948 100.295C166.721 100.4 166.465 100.452 166.179 100.452C165.893 100.452 165.636 100.4 165.407 100.295C165.178 100.191 164.996 100.038 164.863 99.8372C164.73 99.6342 164.664 99.3877 164.664 99.0975C164.664 98.9077 164.7 98.7343 164.772 98.5772C164.846 98.4179 164.95 98.2794 165.083 98.1615C165.218 98.0437 165.377 97.9532 165.56 97.8899C165.746 97.8245 165.95 97.7917 166.172 97.7917C166.465 97.7917 166.726 97.8485 166.955 97.9619C167.184 98.0732 167.364 98.227 167.495 98.4234C167.628 98.6197 167.694 98.8444 167.694 99.0975ZM167.086 99.0844C167.086 98.9077 167.047 98.7517 166.971 98.6164C166.895 98.479 166.788 98.3721 166.65 98.2957C166.513 98.2194 166.354 98.1812 166.172 98.1812C165.987 98.1812 165.827 98.2194 165.691 98.2957C165.558 98.3721 165.455 98.479 165.38 98.6164C165.306 98.7517 165.269 98.9077 165.269 99.0844C165.269 99.2677 165.305 99.4248 165.377 99.5557C165.451 99.6844 165.556 99.7837 165.691 99.8535C165.829 99.9212 165.991 99.955 166.179 99.955C166.367 99.955 166.528 99.9212 166.663 99.8535C166.799 99.7837 166.902 99.6844 166.974 99.5557C167.048 99.4248 167.086 99.2677 167.086 99.0844ZM167.583 96.8623C167.583 97.0936 167.522 97.3019 167.4 97.4874C167.278 97.6728 167.111 97.819 166.899 97.9259C166.687 98.0328 166.447 98.0863 166.179 98.0863C165.906 98.0863 165.663 98.0328 165.449 97.9259C165.238 97.819 165.072 97.6728 164.952 97.4874C164.832 97.3019 164.772 97.0936 164.772 96.8623C164.772 96.5852 164.832 96.3496 164.952 96.1554C165.074 95.9612 165.241 95.8129 165.452 95.7103C165.664 95.6078 165.905 95.5565 166.176 95.5565C166.448 95.5565 166.691 95.6078 166.902 95.7103C167.114 95.8129 167.28 95.9612 167.4 96.1554C167.522 96.3496 167.583 96.5852 167.583 96.8623ZM166.978 96.8721C166.978 96.7128 166.944 96.5721 166.876 96.4499C166.808 96.3278 166.715 96.2318 166.595 96.1619C166.475 96.0899 166.335 96.0539 166.176 96.0539C166.016 96.0539 165.877 96.0878 165.757 96.1554C165.639 96.2208 165.546 96.3147 165.479 96.4368C165.413 96.559 165.38 96.7041 165.38 96.8721C165.38 97.0357 165.413 97.1787 165.479 97.3008C165.546 97.423 165.64 97.5179 165.76 97.5856C165.88 97.6532 166.02 97.687 166.179 97.687C166.338 97.687 166.477 97.6532 166.595 97.5856C166.715 97.5179 166.808 97.423 166.876 97.3008C166.944 97.1787 166.978 97.0357 166.978 96.8721Z" fill="#EEEEF7"/>
<rect x="184.354" y="83.8918" width="36.8634" height="29.0439" fill="white"/>
<path d="M199.773 95.5958V100.387H199.168V96.3518L197.947 96.7968V96.2503L199.678 95.5958H199.773ZM202.156 99.8797H202.218C202.567 99.8797 202.851 99.8306 203.069 99.7324C203.287 99.6342 203.455 99.5022 203.573 99.3364C203.691 99.1706 203.771 98.9841 203.815 98.7768C203.859 98.5674 203.881 98.3524 203.881 98.1321V97.4023C203.881 97.1863 203.855 96.9943 203.805 96.8263C203.757 96.6583 203.69 96.5176 203.602 96.4041C203.517 96.2907 203.42 96.2045 203.311 96.1456C203.202 96.0867 203.086 96.0572 202.964 96.0572C202.825 96.0572 202.699 96.0856 202.588 96.1423C202.479 96.1968 202.386 96.2743 202.31 96.3747C202.236 96.475 202.179 96.5928 202.14 96.7281C202.1 96.8634 202.081 97.0107 202.081 97.1699C202.081 97.3117 202.098 97.4492 202.133 97.5823C202.168 97.7154 202.221 97.8354 202.293 97.9423C202.365 98.0492 202.455 98.1343 202.562 98.1975C202.671 98.2586 202.798 98.2892 202.945 98.2892C203.08 98.2892 203.206 98.263 203.324 98.2106C203.444 98.1561 203.55 98.083 203.642 97.9914C203.735 97.8975 203.81 97.7917 203.864 97.6739C203.921 97.5561 203.954 97.4328 203.962 97.3041H204.25C204.25 97.4852 204.214 97.6641 204.142 97.8408C204.073 98.0154 203.974 98.1746 203.848 98.3186C203.721 98.4626 203.573 98.5783 203.403 98.6655C203.233 98.7506 203.047 98.7932 202.846 98.7932C202.611 98.7932 202.407 98.7474 202.234 98.6557C202.062 98.5641 201.92 98.4419 201.809 98.2892C201.7 98.1365 201.618 97.9663 201.564 97.7786C201.511 97.5888 201.485 97.3968 201.485 97.2026C201.485 96.9757 201.517 96.763 201.58 96.5645C201.643 96.3659 201.737 96.1914 201.861 96.0408C201.986 95.8881 202.14 95.7692 202.323 95.6841C202.508 95.599 202.722 95.5565 202.964 95.5565C203.237 95.5565 203.469 95.611 203.661 95.7201C203.853 95.8292 204.009 95.9754 204.129 96.1587C204.251 96.3419 204.341 96.5481 204.398 96.7772C204.454 97.0063 204.483 97.2419 204.483 97.4841V97.7034C204.483 97.9499 204.466 98.2008 204.434 98.4561C204.403 98.7092 204.343 98.9513 204.254 99.1826C204.166 99.4139 204.039 99.6212 203.871 99.8044C203.703 99.9855 203.483 100.13 203.213 100.236C202.945 100.341 202.613 100.394 202.218 100.394H202.156V99.8797Z" fill="#172755"/>
<rect x="221.217" y="83.8918" width="36.8634" height="29.0439" fill="white"/>
<path d="M237.769 99.8895V100.387H234.65V99.9517L236.211 98.2139C236.403 98.0001 236.551 97.819 236.656 97.6706C236.763 97.5201 236.837 97.3859 236.878 97.2681C236.922 97.1481 236.944 97.0259 236.944 96.9016C236.944 96.7445 236.911 96.6027 236.846 96.4761C236.782 96.3474 236.689 96.2448 236.564 96.1685C236.44 96.0921 236.289 96.0539 236.113 96.0539C235.901 96.0539 235.724 96.0954 235.582 96.1783C235.443 96.259 235.338 96.3725 235.268 96.5187C235.198 96.6648 235.163 96.8328 235.163 97.0227H234.558C234.558 96.7543 234.617 96.5088 234.735 96.2863C234.853 96.0638 235.027 95.887 235.258 95.7561C235.49 95.623 235.774 95.5565 236.113 95.5565C236.414 95.5565 236.671 95.6099 236.885 95.7169C237.099 95.8216 237.262 95.9699 237.376 96.1619C237.491 96.3518 237.549 96.5743 237.549 96.8296C237.549 96.9692 237.525 97.111 237.477 97.255C237.431 97.3968 237.367 97.5386 237.284 97.6805C237.203 97.8223 237.109 97.9619 236.999 98.0994C236.893 98.2368 236.778 98.3721 236.656 98.5052L235.379 99.8895H237.769ZM241.408 97.6248V98.3514C241.408 98.7419 241.373 99.0713 241.303 99.3397C241.233 99.6081 241.133 99.8241 241.002 99.9877C240.871 100.151 240.713 100.27 240.527 100.344C240.344 100.416 240.137 100.452 239.906 100.452C239.722 100.452 239.553 100.43 239.398 100.384C239.243 100.338 239.104 100.265 238.979 100.164C238.857 100.062 238.752 99.9288 238.665 99.7652C238.578 99.6015 238.511 99.403 238.466 99.1695C238.42 98.9361 238.397 98.6634 238.397 98.3514V97.6248C238.397 97.2343 238.432 96.907 238.502 96.643C238.574 96.379 238.675 96.1674 238.806 96.0081C238.937 95.8467 239.094 95.731 239.277 95.6612C239.463 95.5914 239.67 95.5565 239.899 95.5565C240.084 95.5565 240.255 95.5794 240.41 95.6252C240.567 95.6689 240.706 95.7398 240.828 95.8379C240.951 95.9339 241.054 96.0627 241.139 96.2241C241.227 96.3834 241.293 96.5787 241.339 96.8099C241.385 97.0412 241.408 97.3128 241.408 97.6248ZM240.799 98.4495V97.5234C240.799 97.3096 240.786 97.1219 240.76 96.9605C240.736 96.7968 240.7 96.6572 240.652 96.5416C240.604 96.4259 240.543 96.3321 240.468 96.2601C240.396 96.1881 240.312 96.1358 240.216 96.103C240.123 96.0681 240.017 96.0507 239.899 96.0507C239.755 96.0507 239.627 96.0779 239.516 96.1325C239.405 96.1848 239.311 96.2688 239.235 96.3845C239.16 96.5001 239.104 96.6517 239.064 96.8394C239.025 97.027 239.006 97.255 239.006 97.5234V98.4495C239.006 98.6634 239.018 98.8521 239.042 99.0157C239.068 99.1793 239.106 99.3212 239.156 99.4412C239.206 99.559 239.267 99.6561 239.339 99.7324C239.411 99.8088 239.494 99.8655 239.588 99.9026C239.684 99.9375 239.79 99.955 239.906 99.955C240.054 99.955 240.184 99.9266 240.295 99.8699C240.406 99.8132 240.499 99.7248 240.573 99.6048C240.65 99.4826 240.706 99.3266 240.743 99.1368C240.78 98.9448 240.799 98.7157 240.799 98.4495Z" fill="#172755"/>
<rect x="0.0366211" y="112.936" width="36.8634" height="29.0439" fill="white"/>
<path d="M16.5883 128.933V129.431H13.4695V128.996L15.0305 127.258C15.2225 127.044 15.3709 126.863 15.4756 126.714C15.5825 126.564 15.6567 126.43 15.6982 126.312C15.7418 126.192 15.7636 126.07 15.7636 125.945C15.7636 125.788 15.7309 125.646 15.6654 125.52C15.6022 125.391 15.5084 125.289 15.384 125.212C15.2596 125.136 15.1091 125.098 14.9324 125.098C14.7207 125.098 14.544 125.139 14.4022 125.222C14.2626 125.303 14.1578 125.416 14.088 125.562C14.0182 125.709 13.9833 125.877 13.9833 126.066H13.3778C13.3778 125.798 13.4367 125.553 13.5546 125.33C13.6724 125.108 13.8469 124.931 14.0782 124.8C14.3095 124.667 14.5942 124.6 14.9324 124.6C15.2334 124.6 15.4909 124.654 15.7047 124.761C15.9185 124.865 16.0822 125.014 16.1956 125.206C16.3112 125.396 16.3691 125.618 16.3691 125.873C16.3691 126.013 16.3451 126.155 16.2971 126.299C16.2513 126.441 16.1869 126.582 16.104 126.724C16.0233 126.866 15.9283 127.006 15.8193 127.143C15.7123 127.281 15.5978 127.416 15.4756 127.549L14.1993 128.933H16.5883ZM19.2261 124.64V129.431H18.6207V125.396L17.4 125.841V125.294L19.1312 124.64H19.2261Z" fill="#172755"/>
<rect x="36.8999" y="112.936" width="36.8634" height="29.0439" fill="white"/>
<path d="M53.4516 128.933V129.431H50.3328V128.996L51.8938 127.258C52.0858 127.044 52.2342 126.863 52.3389 126.714C52.4458 126.564 52.52 126.43 52.5614 126.312C52.6051 126.192 52.6269 126.07 52.6269 125.945C52.6269 125.788 52.5942 125.646 52.5287 125.52C52.4655 125.391 52.3716 125.289 52.2473 125.212C52.1229 125.136 51.9724 125.098 51.7956 125.098C51.584 125.098 51.4073 125.139 51.2655 125.222C51.1258 125.303 51.0211 125.416 50.9513 125.562C50.8815 125.709 50.8466 125.877 50.8466 126.066H50.2411C50.2411 125.798 50.3 125.553 50.4178 125.33C50.5357 125.108 50.7102 124.931 50.9415 124.8C51.1727 124.667 51.4575 124.6 51.7956 124.6C52.0967 124.6 52.3542 124.654 52.568 124.761C52.7818 124.865 52.9454 125.014 53.0589 125.206C53.1745 125.396 53.2323 125.618 53.2323 125.873C53.2323 126.013 53.2083 126.155 53.1603 126.299C53.1145 126.441 53.0502 126.582 52.9673 126.724C52.8865 126.866 52.7916 127.006 52.6825 127.143C52.5756 127.281 52.4611 127.416 52.3389 127.549L51.0626 128.933H53.4516ZM57.2217 128.933V129.431H54.1029V128.996L55.6639 127.258C55.8559 127.044 56.0043 126.863 56.109 126.714C56.2159 126.564 56.2901 126.43 56.3316 126.312C56.3752 126.192 56.397 126.07 56.397 125.945C56.397 125.788 56.3643 125.646 56.2988 125.52C56.2356 125.391 56.1418 125.289 56.0174 125.212C55.893 125.136 55.7425 125.098 55.5658 125.098C55.3541 125.098 55.1774 125.139 55.0356 125.222C54.896 125.303 54.7912 125.416 54.7214 125.562C54.6516 125.709 54.6167 125.877 54.6167 126.066H54.0112C54.0112 125.798 54.0702 125.553 54.188 125.33C54.3058 125.108 54.4803 124.931 54.7116 124.8C54.9429 124.667 55.2276 124.6 55.5658 124.6C55.8669 124.6 56.1243 124.654 56.3381 124.761C56.5519 124.865 56.7156 125.014 56.829 125.206C56.9447 125.396 57.0025 125.618 57.0025 125.873C57.0025 126.013 56.9785 126.155 56.9305 126.299C56.8847 126.441 56.8203 126.582 56.7374 126.724C56.6567 126.866 56.5617 127.006 56.4527 127.143C56.3458 127.281 56.2312 127.416 56.109 127.549L54.8327 128.933H57.2217Z" fill="#172755"/>
<rect x="73.7632" y="112.936" width="36.8634" height="29.0439" fill="white"/>
<path d="M90.3149 128.933V129.431H87.196V128.996L88.7571 127.258C88.9491 127.044 89.0975 126.863 89.2022 126.714C89.3091 126.564 89.3833 126.43 89.4247 126.312C89.4684 126.192 89.4902 126.07 89.4902 125.945C89.4902 125.788 89.4575 125.646 89.392 125.52C89.3287 125.391 89.2349 125.289 89.1106 125.212C88.9862 125.136 88.8356 125.098 88.6589 125.098C88.4473 125.098 88.2706 125.139 88.1288 125.222C87.9891 125.303 87.8844 125.416 87.8146 125.562C87.7448 125.709 87.7098 125.877 87.7098 126.066H87.1044C87.1044 125.798 87.1633 125.553 87.2811 125.33C87.3989 125.108 87.5735 124.931 87.8048 124.8C88.036 124.667 88.3207 124.6 88.6589 124.6C88.96 124.6 89.2175 124.654 89.4313 124.761C89.6451 124.865 89.8087 125.014 89.9222 125.206C90.0378 125.396 90.0956 125.618 90.0956 125.873C90.0956 126.013 90.0716 126.155 90.0236 126.299C89.9778 126.441 89.9135 126.582 89.8305 126.724C89.7498 126.866 89.6549 127.006 89.5458 127.143C89.4389 127.281 89.3244 127.416 89.2022 127.549L87.9258 128.933H90.3149ZM91.8465 126.75H92.2785C92.4901 126.75 92.6647 126.716 92.8021 126.646C92.9418 126.574 93.0454 126.477 93.113 126.354C93.1829 126.23 93.2178 126.09 93.2178 125.936C93.2178 125.752 93.1872 125.598 93.1261 125.474C93.065 125.35 92.9734 125.256 92.8512 125.193C92.729 125.129 92.5741 125.098 92.3865 125.098C92.2163 125.098 92.0658 125.132 91.9349 125.199C91.8061 125.265 91.7047 125.358 91.6305 125.481C91.5585 125.603 91.5225 125.747 91.5225 125.913H90.9171C90.9171 125.67 90.9782 125.45 91.1003 125.252C91.2225 125.053 91.3938 124.895 91.6142 124.777C91.8367 124.659 92.0941 124.6 92.3865 124.6C92.6745 124.6 92.9265 124.652 93.1425 124.754C93.3585 124.854 93.5265 125.005 93.6465 125.206C93.7665 125.404 93.8265 125.652 93.8265 125.949C93.8265 126.069 93.7981 126.197 93.7414 126.335C93.6868 126.47 93.6007 126.597 93.4828 126.714C93.3672 126.832 93.2167 126.929 93.0312 127.006C92.8458 127.08 92.6232 127.117 92.3636 127.117H91.8465V126.75ZM91.8465 127.248V126.885H92.3636C92.6669 126.885 92.9178 126.921 93.1163 126.993C93.3149 127.065 93.4708 127.161 93.5843 127.281C93.6999 127.401 93.7807 127.533 93.8265 127.677C93.8745 127.818 93.8985 127.96 93.8985 128.102C93.8985 128.325 93.8603 128.522 93.7839 128.694C93.7098 128.867 93.6039 129.013 93.4665 129.133C93.3312 129.253 93.1719 129.344 92.9887 129.405C92.8054 129.466 92.6058 129.496 92.3898 129.496C92.1825 129.496 91.9872 129.467 91.804 129.408C91.6229 129.349 91.4625 129.264 91.3229 129.153C91.1832 129.039 91.0742 128.901 90.9956 128.737C90.9171 128.571 90.8778 128.382 90.8778 128.171H91.4832C91.4832 128.337 91.5192 128.482 91.5912 128.606C91.6654 128.73 91.7701 128.828 91.9054 128.897C92.0429 128.965 92.2043 128.999 92.3898 128.999C92.5752 128.999 92.7345 128.967 92.8676 128.904C93.0029 128.838 93.1065 128.74 93.1785 128.609C93.2527 128.478 93.2898 128.314 93.2898 128.115C93.2898 127.917 93.2483 127.754 93.1654 127.628C93.0825 127.499 92.9647 127.404 92.8119 127.343C92.6614 127.28 92.4836 127.248 92.2785 127.248H91.8465Z" fill="#172755"/>
<rect x="110.627" y="112.936" width="36.8634" height="29.0439" fill="white"/>
<path d="M127.179 128.933V129.431H124.06V128.996L125.621 127.258C125.813 127.044 125.961 126.863 126.066 126.714C126.173 126.564 126.247 126.43 126.289 126.312C126.332 126.192 126.354 126.07 126.354 125.945C126.354 125.788 126.321 125.646 126.256 125.52C126.193 125.391 126.099 125.289 125.974 125.212C125.85 125.136 125.699 125.098 125.523 125.098C125.311 125.098 125.134 125.139 124.993 125.222C124.853 125.303 124.748 125.416 124.678 125.562C124.609 125.709 124.574 125.877 124.574 126.066H123.968C123.968 125.798 124.027 125.553 124.145 125.33C124.263 125.108 124.437 124.931 124.669 124.8C124.9 124.667 125.185 124.6 125.523 124.6C125.824 124.6 126.081 124.654 126.295 124.761C126.509 124.865 126.672 125.014 126.786 125.206C126.902 125.396 126.959 125.618 126.959 125.873C126.959 126.013 126.935 126.155 126.887 126.299C126.842 126.441 126.777 126.582 126.694 126.724C126.614 126.866 126.519 127.006 126.41 127.143C126.303 127.281 126.188 127.416 126.066 127.549L124.79 128.933H127.179ZM131.047 127.827V128.325H127.604V127.968L129.738 124.666H130.232L129.702 125.621L128.291 127.827H131.047ZM130.383 124.666V129.431H129.777V124.666H130.383Z" fill="#172755"/>
<rect x="147.49" y="112.936" width="36.8634" height="29.0439" fill="white"/>
<path d="M164.042 128.933V129.431H160.923V128.996L162.484 127.258C162.676 127.044 162.825 126.863 162.929 126.714C163.036 126.564 163.11 126.43 163.152 126.312C163.195 126.192 163.217 126.07 163.217 125.945C163.217 125.788 163.185 125.646 163.119 125.52C163.056 125.391 162.962 125.289 162.838 125.212C162.713 125.136 162.563 125.098 162.386 125.098C162.174 125.098 161.998 125.139 161.856 125.222C161.716 125.303 161.611 125.416 161.542 125.562C161.472 125.709 161.437 125.877 161.437 126.066H160.831C160.831 125.798 160.89 125.553 161.008 125.33C161.126 125.108 161.301 124.931 161.532 124.8C161.763 124.667 162.048 124.6 162.386 124.6C162.687 124.6 162.945 124.654 163.158 124.761C163.372 124.865 163.536 125.014 163.649 125.206C163.765 125.396 163.823 125.618 163.823 125.873C163.823 126.013 163.799 126.155 163.751 126.299C163.705 126.441 163.641 126.582 163.558 126.724C163.477 126.866 163.382 127.006 163.273 127.143C163.166 127.281 163.051 127.416 162.929 127.549L161.653 128.933H164.042ZM165.456 127.163L164.971 127.038L165.21 124.666H167.655V125.225H165.724L165.58 126.521C165.667 126.471 165.778 126.424 165.911 126.381C166.046 126.337 166.201 126.315 166.375 126.315C166.596 126.315 166.793 126.353 166.968 126.43C167.142 126.504 167.291 126.611 167.413 126.75C167.537 126.89 167.632 127.058 167.698 127.254C167.763 127.451 167.796 127.67 167.796 127.912C167.796 128.141 167.764 128.352 167.701 128.544C167.64 128.736 167.547 128.904 167.423 129.048C167.298 129.19 167.141 129.3 166.951 129.378C166.764 129.457 166.542 129.496 166.287 129.496C166.095 129.496 165.913 129.47 165.74 129.418C165.57 129.363 165.418 129.281 165.282 129.172C165.149 129.061 165.04 128.924 164.955 128.76C164.872 128.594 164.82 128.4 164.798 128.177H165.374C165.4 128.356 165.452 128.507 165.531 128.629C165.61 128.751 165.712 128.844 165.839 128.907C165.967 128.968 166.117 128.999 166.287 128.999C166.431 128.999 166.559 128.974 166.67 128.924C166.781 128.873 166.875 128.801 166.951 128.708C167.028 128.614 167.086 128.5 167.125 128.367C167.166 128.234 167.187 128.085 167.187 127.919C167.187 127.768 167.166 127.629 167.125 127.5C167.083 127.371 167.021 127.259 166.938 127.163C166.858 127.067 166.758 126.993 166.64 126.94C166.523 126.886 166.387 126.858 166.235 126.858C166.032 126.858 165.878 126.886 165.773 126.94C165.671 126.995 165.565 127.069 165.456 127.163Z" fill="#172755"/>
<rect x="184.354" y="112.936" width="36.8634" height="29.0439" fill="white"/>
<path d="M200.906 128.933V129.431H197.787V128.996L199.348 127.258C199.54 127.044 199.688 126.863 199.793 126.714C199.9 126.564 199.974 126.43 200.016 126.312C200.059 126.192 200.081 126.07 200.081 125.945C200.081 125.788 200.048 125.646 199.983 125.52C199.92 125.391 199.826 125.289 199.701 125.212C199.577 125.136 199.426 125.098 199.25 125.098C199.038 125.098 198.861 125.139 198.72 125.222C198.58 125.303 198.475 125.416 198.405 125.562C198.336 125.709 198.301 125.877 198.301 126.066H197.695C197.695 125.798 197.754 125.553 197.872 125.33C197.99 125.108 198.164 124.931 198.396 124.8C198.627 124.667 198.912 124.6 199.25 124.6C199.551 124.6 199.808 124.654 200.022 124.761C200.236 124.865 200.4 125.014 200.513 125.206C200.629 125.396 200.686 125.618 200.686 125.873C200.686 126.013 200.662 126.155 200.614 126.299C200.569 126.441 200.504 126.582 200.421 126.724C200.341 126.866 200.246 127.006 200.137 127.143C200.03 127.281 199.915 127.416 199.793 127.549L198.517 128.933H200.906ZM203.877 124.659H203.93V125.173H203.877C203.557 125.173 203.288 125.225 203.072 125.33C202.856 125.433 202.685 125.571 202.558 125.746C202.432 125.918 202.34 126.112 202.284 126.328C202.229 126.544 202.202 126.764 202.202 126.986V127.686C202.202 127.898 202.227 128.086 202.277 128.249C202.327 128.411 202.396 128.547 202.483 128.658C202.57 128.77 202.669 128.854 202.778 128.91C202.889 128.967 203.005 128.996 203.125 128.996C203.264 128.996 203.389 128.969 203.498 128.917C203.607 128.862 203.698 128.787 203.773 128.691C203.849 128.593 203.907 128.477 203.946 128.344C203.985 128.211 204.005 128.065 204.005 127.906C204.005 127.764 203.987 127.628 203.953 127.497C203.918 127.364 203.864 127.246 203.792 127.143C203.72 127.038 203.63 126.957 203.521 126.898C203.414 126.837 203.286 126.806 203.138 126.806C202.97 126.806 202.813 126.848 202.666 126.93C202.522 127.011 202.404 127.118 202.31 127.251C202.218 127.382 202.166 127.525 202.153 127.68L201.832 127.677C201.862 127.432 201.919 127.224 202.002 127.052C202.087 126.877 202.192 126.735 202.316 126.626C202.443 126.515 202.584 126.434 202.738 126.384C202.896 126.332 203.061 126.305 203.236 126.305C203.474 126.305 203.679 126.35 203.851 126.44C204.023 126.529 204.165 126.649 204.277 126.8C204.388 126.948 204.47 127.116 204.522 127.304C204.577 127.489 204.604 127.68 204.604 127.876C204.604 128.101 204.572 128.312 204.509 128.508C204.446 128.704 204.351 128.877 204.224 129.025C204.1 129.173 203.946 129.289 203.763 129.372C203.579 129.455 203.367 129.496 203.125 129.496C202.867 129.496 202.642 129.444 202.45 129.339C202.258 129.232 202.099 129.09 201.973 128.914C201.846 128.737 201.751 128.541 201.688 128.325C201.625 128.109 201.593 127.889 201.593 127.667V127.382C201.593 127.046 201.627 126.717 201.694 126.394C201.762 126.071 201.879 125.778 202.045 125.517C202.213 125.255 202.445 125.046 202.742 124.892C203.038 124.737 203.417 124.659 203.877 124.659Z" fill="#172755"/>
<rect x="221.217" y="112.936" width="36.8634" height="29.0439" fill="white"/>
<path d="M237.769 128.933V129.431H234.65V128.996L236.211 127.258C236.403 127.044 236.551 126.863 236.656 126.714C236.763 126.564 236.837 126.43 236.878 126.312C236.922 126.192 236.944 126.07 236.944 125.945C236.944 125.788 236.911 125.646 236.846 125.52C236.782 125.391 236.689 125.289 236.564 125.212C236.44 125.136 236.289 125.098 236.113 125.098C235.901 125.098 235.724 125.139 235.582 125.222C235.443 125.303 235.338 125.416 235.268 125.562C235.198 125.709 235.163 125.877 235.163 126.066H234.558C234.558 125.798 234.617 125.553 234.735 125.33C234.853 125.108 235.027 124.931 235.258 124.8C235.49 124.667 235.774 124.6 236.113 124.6C236.414 124.6 236.671 124.654 236.885 124.761C237.099 124.865 237.262 125.014 237.376 125.206C237.491 125.396 237.549 125.618 237.549 125.873C237.549 126.013 237.525 126.155 237.477 126.299C237.431 126.441 237.367 126.582 237.284 126.724C237.203 126.866 237.109 127.006 236.999 127.143C236.893 127.281 236.778 127.416 236.656 127.549L235.379 128.933H237.769ZM241.496 124.666V125.006L239.523 129.431H238.884L240.855 125.163H238.276V124.666H241.496Z" fill="#172755"/>
<rect x="0.0366211" y="141.98" width="36.8634" height="29.0439" fill="white"/>
<path d="M16.5883 157.977V158.475H13.4695V158.039L15.0305 156.302C15.2225 156.088 15.3709 155.907 15.4756 155.758C15.5825 155.608 15.6567 155.474 15.6982 155.356C15.7418 155.236 15.7636 155.114 15.7636 154.989C15.7636 154.832 15.7309 154.69 15.6654 154.564C15.6022 154.435 15.5084 154.333 15.384 154.256C15.2596 154.18 15.1091 154.142 14.9324 154.142C14.7207 154.142 14.544 154.183 14.4022 154.266C14.2626 154.347 14.1578 154.46 14.088 154.606C14.0182 154.753 13.9833 154.921 13.9833 155.11H13.3778C13.3778 154.842 13.4367 154.597 13.5546 154.374C13.6724 154.152 13.8469 153.975 14.0782 153.844C14.3095 153.711 14.5942 153.644 14.9324 153.644C15.2334 153.644 15.4909 153.698 15.7047 153.805C15.9185 153.909 16.0822 154.058 16.1956 154.25C16.3112 154.44 16.3691 154.662 16.3691 154.917C16.3691 155.057 16.3451 155.199 16.2971 155.343C16.2513 155.485 16.1869 155.626 16.104 155.768C16.0233 155.91 15.9283 156.05 15.8193 156.187C15.7123 156.325 15.5978 156.46 15.4756 156.593L14.1993 157.977H16.5883ZM20.2406 157.185C20.2406 157.475 20.173 157.722 20.0377 157.925C19.9046 158.126 19.7236 158.278 19.4945 158.383C19.2676 158.488 19.0112 158.54 18.7254 158.54C18.4396 158.54 18.1821 158.488 17.953 158.383C17.724 158.278 17.5429 158.126 17.4098 157.925C17.2767 157.722 17.2101 157.475 17.2101 157.185C17.2101 156.995 17.2461 156.822 17.3181 156.665C17.3923 156.506 17.496 156.367 17.629 156.249C17.7643 156.131 17.9236 156.041 18.1069 155.978C18.2923 155.912 18.4963 155.879 18.7188 155.879C19.0112 155.879 19.2719 155.936 19.501 156.05C19.7301 156.161 19.9101 156.315 20.041 156.511C20.1741 156.707 20.2406 156.932 20.2406 157.185ZM19.6319 157.172C19.6319 156.995 19.5937 156.839 19.5174 156.704C19.441 156.567 19.3341 156.46 19.1967 156.383C19.0592 156.307 18.8999 156.269 18.7188 156.269C18.5334 156.269 18.373 156.307 18.2378 156.383C18.1047 156.46 18.001 156.567 17.9269 156.704C17.8527 156.839 17.8156 156.995 17.8156 157.172C17.8156 157.355 17.8516 157.513 17.9236 157.643C17.9978 157.772 18.1025 157.871 18.2378 157.941C18.3752 158.009 18.5378 158.043 18.7254 158.043C18.913 158.043 19.0745 158.009 19.2097 157.941C19.345 157.871 19.4487 157.772 19.5207 157.643C19.5948 157.513 19.6319 157.355 19.6319 157.172ZM20.1294 154.95C20.1294 155.181 20.0683 155.39 19.9461 155.575C19.8239 155.761 19.657 155.907 19.4454 156.014C19.2337 156.121 18.9938 156.174 18.7254 156.174C18.4527 156.174 18.2094 156.121 17.9956 156.014C17.784 155.907 17.6181 155.761 17.4981 155.575C17.3781 155.39 17.3181 155.181 17.3181 154.95C17.3181 154.673 17.3781 154.437 17.4981 154.243C17.6203 154.049 17.7872 153.901 17.9989 153.798C18.2105 153.696 18.4516 153.644 18.7221 153.644C18.9948 153.644 19.237 153.696 19.4487 153.798C19.6603 153.901 19.8261 154.049 19.9461 154.243C20.0683 154.437 20.1294 154.673 20.1294 154.95ZM19.5239 154.96C19.5239 154.801 19.4901 154.66 19.4225 154.538C19.3548 154.416 19.261 154.32 19.141 154.25C19.021 154.178 18.8814 154.142 18.7221 154.142C18.5629 154.142 18.4232 154.176 18.3032 154.243C18.1854 154.309 18.0927 154.402 18.025 154.525C17.9596 154.647 17.9269 154.792 17.9269 154.96C17.9269 155.124 17.9596 155.266 18.025 155.389C18.0927 155.511 18.1865 155.606 18.3065 155.673C18.4265 155.741 18.5661 155.775 18.7254 155.775C18.8847 155.775 19.0232 155.741 19.141 155.673C19.261 155.606 19.3548 155.511 19.4225 155.389C19.4901 155.266 19.5239 155.124 19.5239 154.96Z" fill="#172755"/>
<rect x="36.8999" y="141.98" width="36.8634" height="29.0439" fill="white"/>
<path d="M53.4516 157.977V158.475H50.3328V158.039L51.8938 156.302C52.0858 156.088 52.2342 155.907 52.3389 155.758C52.4458 155.608 52.52 155.474 52.5614 155.356C52.6051 155.236 52.6269 155.114 52.6269 154.989C52.6269 154.832 52.5942 154.69 52.5287 154.564C52.4655 154.435 52.3716 154.333 52.2473 154.256C52.1229 154.18 51.9724 154.142 51.7956 154.142C51.584 154.142 51.4073 154.183 51.2655 154.266C51.1258 154.347 51.0211 154.46 50.9513 154.606C50.8815 154.753 50.8466 154.921 50.8466 155.11H50.2411C50.2411 154.842 50.3 154.597 50.4178 154.374C50.5357 154.152 50.7102 153.975 50.9415 153.844C51.1727 153.711 51.4575 153.644 51.7956 153.644C52.0967 153.644 52.3542 153.698 52.568 153.805C52.7818 153.909 52.9454 154.058 53.0589 154.25C53.1745 154.44 53.2323 154.662 53.2323 154.917C53.2323 155.057 53.2083 155.199 53.1603 155.343C53.1145 155.485 53.0502 155.626 52.9673 155.768C52.8865 155.91 52.7916 156.05 52.6825 156.187C52.5756 156.325 52.4611 156.46 52.3389 156.593L51.0626 157.977H53.4516ZM54.7018 157.967H54.764C55.113 157.967 55.3967 157.918 55.6149 157.82C55.833 157.722 56.001 157.59 56.1188 157.424C56.2367 157.258 56.3174 157.072 56.361 156.865C56.4047 156.655 56.4265 156.44 56.4265 156.22V155.49C56.4265 155.274 56.4014 155.082 56.3512 154.914C56.3032 154.746 56.2356 154.605 56.1483 154.492C56.0632 154.378 55.9661 154.292 55.857 154.233C55.7479 154.174 55.6323 154.145 55.5101 154.145C55.3705 154.145 55.245 154.173 55.1338 154.23C55.0247 154.285 54.932 154.362 54.8556 154.462C54.7814 154.563 54.7247 154.681 54.6854 154.816C54.6461 154.951 54.6265 155.098 54.6265 155.258C54.6265 155.4 54.644 155.537 54.6789 155.67C54.7138 155.803 54.7672 155.923 54.8392 156.03C54.9112 156.137 55.0007 156.222 55.1076 156.285C55.2167 156.346 55.3443 156.377 55.4905 156.377C55.6258 156.377 55.7523 156.351 55.8701 156.298C55.9901 156.244 56.0959 156.171 56.1876 156.079C56.2814 155.985 56.3556 155.879 56.4101 155.762C56.4668 155.644 56.4996 155.521 56.5083 155.392H56.7963C56.7963 155.573 56.7603 155.752 56.6883 155.929C56.6185 156.103 56.5203 156.262 56.3938 156.406C56.2672 156.55 56.1188 156.666 55.9487 156.753C55.7785 156.838 55.593 156.881 55.3923 156.881C55.1567 156.881 54.9527 156.835 54.7803 156.743C54.608 156.652 54.4661 156.53 54.3549 156.377C54.2458 156.224 54.164 156.054 54.1094 155.866C54.0571 155.677 54.0309 155.485 54.0309 155.29C54.0309 155.064 54.0625 154.851 54.1258 154.652C54.1891 154.454 54.2829 154.279 54.4072 154.129C54.5316 153.976 54.6854 153.857 54.8687 153.772C55.0541 153.687 55.268 153.644 55.5101 153.644C55.7829 153.644 56.0152 153.699 56.2072 153.808C56.3992 153.917 56.5552 154.063 56.6752 154.246C56.7974 154.43 56.8868 154.636 56.9436 154.865C57.0003 155.094 57.0287 155.33 57.0287 155.572V155.791C57.0287 156.038 57.0123 156.289 56.9796 156.544C56.949 156.797 56.889 157.039 56.7996 157.27C56.7123 157.502 56.5847 157.709 56.4167 157.892C56.2487 158.073 56.0294 158.217 55.7589 158.324C55.4905 158.429 55.1589 158.481 54.764 158.481H54.7018V157.967Z" fill="#172755"/>
<rect x="73.7632" y="141.98" width="36.8634" height="29.0439" fill="white"/>
<path d="M88.0764 155.794H88.5084C88.72 155.794 88.8946 155.76 89.032 155.69C89.1716 155.618 89.2753 155.521 89.3429 155.398C89.4127 155.274 89.4476 155.134 89.4476 154.98C89.4476 154.796 89.4171 154.642 89.356 154.518C89.2949 154.394 89.2033 154.3 89.0811 154.237C88.9589 154.173 88.804 154.142 88.6164 154.142C88.4462 154.142 88.2957 154.176 88.1648 154.243C88.036 154.309 87.9346 154.402 87.8604 154.525C87.7884 154.647 87.7524 154.791 87.7524 154.957H87.1469C87.1469 154.714 87.208 154.494 87.3302 154.296C87.4524 154.097 87.6237 153.939 87.844 153.821C88.0666 153.703 88.324 153.644 88.6164 153.644C88.9044 153.644 89.1564 153.696 89.3724 153.798C89.5884 153.898 89.7564 154.049 89.8764 154.25C89.9964 154.448 90.0564 154.696 90.0564 154.993C90.0564 155.113 90.028 155.241 89.9713 155.379C89.9167 155.514 89.8305 155.641 89.7127 155.758C89.5971 155.876 89.4465 155.973 89.2611 156.05C89.0756 156.124 88.8531 156.161 88.5935 156.161H88.0764V155.794ZM88.0764 156.292V155.929H88.5935C88.8967 155.929 89.1476 155.965 89.3462 156.037C89.5447 156.109 89.7007 156.205 89.8142 156.325C89.9298 156.445 90.0105 156.577 90.0564 156.721C90.1044 156.862 90.1284 157.004 90.1284 157.146C90.1284 157.369 90.0902 157.566 90.0138 157.738C89.9396 157.911 89.8338 158.057 89.6964 158.177C89.5611 158.297 89.4018 158.387 89.2186 158.449C89.0353 158.51 88.8356 158.54 88.6197 158.54C88.4124 158.54 88.2171 158.511 88.0338 158.452C87.8528 158.393 87.6924 158.308 87.5528 158.197C87.4131 158.083 87.304 157.945 87.2255 157.781C87.1469 157.615 87.1077 157.426 87.1077 157.215H87.7131C87.7131 157.381 87.7491 157.526 87.8211 157.65C87.8953 157.774 88 157.871 88.1353 157.941C88.2727 158.009 88.4342 158.043 88.6197 158.043C88.8051 158.043 88.9644 158.011 89.0975 157.948C89.2327 157.882 89.3364 157.784 89.4084 157.653C89.4825 157.522 89.5196 157.358 89.5196 157.159C89.5196 156.961 89.4782 156.798 89.3953 156.671C89.3124 156.543 89.1946 156.448 89.0418 156.387C88.8913 156.323 88.7135 156.292 88.5084 156.292H88.0764ZM93.9541 155.713V156.439C93.9541 156.83 93.9192 157.159 93.8494 157.427C93.7796 157.696 93.6792 157.912 93.5483 158.075C93.4174 158.239 93.2592 158.358 93.0738 158.432C92.8905 158.504 92.6832 158.54 92.452 158.54C92.2687 158.54 92.0996 158.517 91.9447 158.471C91.7898 158.426 91.6502 158.353 91.5258 158.252C91.4036 158.15 91.2989 158.017 91.2116 157.853C91.1243 157.689 91.0578 157.491 91.012 157.257C90.9662 157.024 90.9433 156.751 90.9433 156.439V155.713C90.9433 155.322 90.9782 154.995 91.048 154.731C91.12 154.467 91.2214 154.255 91.3523 154.096C91.4832 153.934 91.6403 153.819 91.8236 153.749C92.0091 153.679 92.2163 153.644 92.4454 153.644C92.6309 153.644 92.801 153.667 92.9559 153.713C93.113 153.757 93.2527 153.828 93.3749 153.926C93.497 154.022 93.6007 154.15 93.6858 154.312C93.773 154.471 93.8396 154.666 93.8854 154.898C93.9312 155.129 93.9541 155.401 93.9541 155.713ZM93.3454 156.537V155.611C93.3454 155.397 93.3323 155.21 93.3061 155.048C93.2821 154.885 93.2461 154.745 93.1981 154.629C93.1501 154.514 93.089 154.42 93.0149 154.348C92.9429 154.276 92.8589 154.224 92.7629 154.191C92.669 154.156 92.5632 154.138 92.4454 154.138C92.3014 154.138 92.1738 154.166 92.0625 154.22C91.9512 154.273 91.8574 154.357 91.7811 154.472C91.7069 154.588 91.6502 154.74 91.6109 154.927C91.5716 155.115 91.552 155.343 91.552 155.611V156.537C91.552 156.751 91.564 156.94 91.588 157.103C91.6142 157.267 91.6523 157.409 91.7025 157.529C91.7527 157.647 91.8138 157.744 91.8858 157.82C91.9578 157.897 92.0407 157.953 92.1345 157.99C92.2305 158.025 92.3363 158.043 92.452 158.043C92.6003 158.043 92.7301 158.014 92.8414 157.958C92.9527 157.901 93.0454 157.813 93.1196 157.693C93.1959 157.57 93.2527 157.414 93.2898 157.225C93.3269 157.033 93.3454 156.803 93.3454 156.537Z" fill="#172755"/>
<rect x="110.627" y="141.98" width="36.8634" height="29.0439" fill="white"/>
<path d="M124.94 155.794H125.372C125.584 155.794 125.758 155.76 125.896 155.69C126.035 155.618 126.139 155.521 126.207 155.398C126.277 155.274 126.311 155.134 126.311 154.98C126.311 154.796 126.281 154.642 126.22 154.518C126.159 154.394 126.067 154.3 125.945 154.237C125.823 154.173 125.668 154.142 125.48 154.142C125.31 154.142 125.159 154.176 125.029 154.243C124.9 154.309 124.798 154.402 124.724 154.525C124.652 154.647 124.616 154.791 124.616 154.957H124.011C124.011 154.714 124.072 154.494 124.194 154.296C124.316 154.097 124.487 153.939 124.708 153.821C124.93 153.703 125.188 153.644 125.48 153.644C125.768 153.644 126.02 153.696 126.236 153.798C126.452 153.898 126.62 154.049 126.74 154.25C126.86 154.448 126.92 154.696 126.92 154.993C126.92 155.113 126.892 155.241 126.835 155.379C126.78 155.514 126.694 155.641 126.576 155.758C126.461 155.876 126.31 155.973 126.125 156.05C125.939 156.124 125.717 156.161 125.457 156.161H124.94V155.794ZM124.94 156.292V155.929H125.457C125.761 155.929 126.011 155.965 126.21 156.037C126.408 156.109 126.564 156.205 126.678 156.325C126.794 156.445 126.874 156.577 126.92 156.721C126.968 156.862 126.992 157.004 126.992 157.146C126.992 157.369 126.954 157.566 126.878 157.738C126.803 157.911 126.698 158.057 126.56 158.177C126.425 158.297 126.266 158.387 126.082 158.449C125.899 158.51 125.699 158.54 125.483 158.54C125.276 158.54 125.081 158.511 124.898 158.452C124.717 158.393 124.556 158.308 124.417 158.197C124.277 158.083 124.168 157.945 124.089 157.781C124.011 157.615 123.971 157.426 123.971 157.215H124.577C124.577 157.381 124.613 157.526 124.685 157.65C124.759 157.774 124.864 157.871 124.999 157.941C125.137 158.009 125.298 158.043 125.483 158.043C125.669 158.043 125.828 158.011 125.961 157.948C126.097 157.882 126.2 157.784 126.272 157.653C126.346 157.522 126.383 157.358 126.383 157.159C126.383 156.961 126.342 156.798 126.259 156.671C126.176 156.543 126.058 156.448 125.906 156.387C125.755 156.323 125.577 156.292 125.372 156.292H124.94ZM129.816 153.684V158.475H129.211V154.44L127.99 154.885V154.338L129.722 153.684H129.816Z" fill="#172755"/>
<rect x="147.49" y="141.98" width="36.8634" height="29.0439" fill="white"/>
<rect x="184.354" y="141.98" width="36.8634" height="29.0439" fill="white"/>
<rect x="221.217" y="141.98" width="36.8634" height="29.0439" fill="white"/>
<path d="M9.65912 2.90478H10.2711L11.8322 6.78945L13.39 2.90478H14.0052L12.0678 7.6698H11.59L9.65912 2.90478ZM9.45949 2.90478H9.99948L10.0878 5.81092V7.6698H9.45949V2.90478ZM13.6616 2.90478H14.2016V7.6698H13.5732V5.81092L13.6616 2.90478ZM18.9797 5.13675V5.43784C18.9797 5.79565 18.935 6.11637 18.8455 6.4C18.7561 6.68363 18.6273 6.92472 18.4593 7.12326C18.2913 7.32181 18.0895 7.47344 17.8539 7.57816C17.6204 7.68289 17.3586 7.73525 17.0685 7.73525C16.787 7.73525 16.5285 7.68289 16.2928 7.57816C16.0594 7.47344 15.8565 7.32181 15.6841 7.12326C15.5139 6.92472 15.3819 6.68363 15.2881 6.4C15.1943 6.11637 15.1474 5.79565 15.1474 5.43784V5.13675C15.1474 4.77894 15.1932 4.45931 15.2848 4.17786C15.3787 3.89422 15.5107 3.65314 15.6808 3.45459C15.851 3.25387 16.0528 3.10114 16.2863 2.99642C16.5219 2.89169 16.7805 2.83933 17.0619 2.83933C17.3521 2.83933 17.6139 2.89169 17.8474 2.99642C18.083 3.10114 18.2848 3.25387 18.4528 3.45459C18.623 3.65314 18.7528 3.89422 18.8422 4.17786C18.9339 4.45931 18.9797 4.77894 18.9797 5.13675ZM18.3546 5.43784V5.1302C18.3546 4.84657 18.3252 4.59567 18.2663 4.37749C18.2095 4.15931 18.1255 3.97604 18.0143 3.82768C17.903 3.67932 17.7666 3.56696 17.6052 3.49059C17.4459 3.41423 17.2648 3.37605 17.0619 3.37605C16.8656 3.37605 16.6877 3.41423 16.5285 3.49059C16.3714 3.56696 16.2361 3.67932 16.1227 3.82768C16.0114 3.97604 15.9252 4.15931 15.8641 4.37749C15.803 4.59567 15.7725 4.84657 15.7725 5.1302V5.43784C15.7725 5.72365 15.803 5.97674 15.8641 6.1971C15.9252 6.41527 16.0125 6.59963 16.1259 6.75018C16.2416 6.89854 16.3779 7.0109 16.535 7.08726C16.6943 7.16363 16.8721 7.20181 17.0685 7.20181C17.2735 7.20181 17.4557 7.16363 17.615 7.08726C17.7743 7.0109 17.9084 6.89854 18.0175 6.75018C18.1288 6.59963 18.2128 6.41527 18.2695 6.1971C18.3263 5.97674 18.3546 5.72365 18.3546 5.43784ZM23.5909 2.90478V7.6698H22.956L20.5571 3.99459V7.6698H19.9255V2.90478H20.5571L22.9658 6.58982V2.90478H23.5909Z" fill="#8794BA"/>
<path d="M50.8072 2.90478V7.6698H50.1854V2.90478H50.8072ZM52.3388 2.90478V3.42187H48.6571V2.90478H52.3388ZM55.7719 2.90478H56.4002V6.12837C56.4002 6.48618 56.3206 6.784 56.1613 7.02181C56.0021 7.25962 55.7904 7.43853 55.5264 7.55853C55.2646 7.67635 54.9799 7.73525 54.6723 7.73525C54.3493 7.73525 54.057 7.67635 53.7952 7.55853C53.5355 7.43853 53.3294 7.25962 53.1766 7.02181C53.0261 6.784 52.9508 6.48618 52.9508 6.12837V2.90478H53.5759V6.12837C53.5759 6.37709 53.6217 6.58218 53.7134 6.74363C53.805 6.90508 53.9326 7.02508 54.0963 7.10363C54.2621 7.18217 54.4541 7.22144 54.6723 7.22144C54.8926 7.22144 55.0846 7.18217 55.2482 7.10363C55.4141 7.02508 55.5428 6.90508 55.6344 6.74363C55.7261 6.58218 55.7719 6.37709 55.7719 6.12837V2.90478ZM60.4191 7.15599V7.6698H57.8958V7.15599H60.4191ZM58.0235 2.90478V7.6698H57.3918V2.90478H58.0235ZM60.0853 4.95348V5.46729H57.8958V4.95348H60.0853ZM60.3863 2.90478V3.42187H57.8958V2.90478H60.3863Z" fill="#8794BA"/>
<path d="M86.0446 6.22982L86.9904 2.90478H87.4486L87.1835 4.19749L86.1657 7.6698H85.7108L86.0446 6.22982ZM85.0661 2.90478L85.8188 6.16437L86.0446 7.6698H85.593L84.4377 2.90478H85.0661ZM88.6726 6.1611L89.4089 2.90478H90.0406L88.8886 7.6698H88.4369L88.6726 6.1611ZM87.5173 2.90478L88.4369 6.22982L88.7708 7.6698H88.3159L87.334 4.19749L87.0657 2.90478H87.5173ZM93.7681 7.15599V7.6698H91.2449V7.15599H93.7681ZM91.3725 2.90478V7.6698H90.7409V2.90478H91.3725ZM93.4343 4.95348V5.46729H91.2449V4.95348H93.4343ZM93.7354 2.90478V3.42187H91.2449V2.90478H93.7354ZM95.8397 7.6698H94.8448L94.8514 7.15599H95.8397C96.1801 7.15599 96.4637 7.08508 96.6906 6.94327C96.9175 6.79927 97.0877 6.59854 97.2012 6.34109C97.3168 6.08146 97.3746 5.77819 97.3746 5.43129V5.14002C97.3746 4.8673 97.3419 4.62512 97.2764 4.41349C97.211 4.19967 97.115 4.01968 96.9884 3.8735C96.8619 3.72514 96.707 3.61277 96.5237 3.53641C96.3426 3.46005 96.1343 3.42187 95.8986 3.42187H94.8252V2.90478H95.8986C96.2106 2.90478 96.4954 2.95715 96.7528 3.06187C97.0103 3.16442 97.2317 3.31387 97.4172 3.51023C97.6048 3.70441 97.7488 3.94004 97.8492 4.21713C97.9495 4.49203 97.9997 4.80185 97.9997 5.14657V5.43129C97.9997 5.77601 97.9495 6.08692 97.8492 6.364C97.7488 6.63891 97.6037 6.87345 97.4139 7.06763C97.2263 7.26181 96.9993 7.41126 96.7332 7.51598C96.4692 7.61853 96.1714 7.6698 95.8397 7.6698ZM95.1819 2.90478V7.6698H94.5503V2.90478H95.1819Z" fill="#8794BA"/>
<path d="M122.988 2.90478V7.6698H122.366V2.90478H122.988ZM124.519 2.90478V3.42187H120.837V2.90478H124.519ZM128.338 4.95348V5.46729H125.76V4.95348H128.338ZM125.858 2.90478V7.6698H125.226V2.90478H125.858ZM128.888 2.90478V7.6698H128.26V2.90478H128.888ZM132.737 2.90478H133.365V6.12837C133.365 6.48618 133.286 6.784 133.126 7.02181C132.967 7.25962 132.755 7.43853 132.491 7.55853C132.23 7.67635 131.945 7.73525 131.637 7.73525C131.314 7.73525 131.022 7.67635 130.76 7.55853C130.501 7.43853 130.294 7.25962 130.142 7.02181C129.991 6.784 129.916 6.48618 129.916 6.12837V2.90478H130.541V6.12837C130.541 6.37709 130.587 6.58218 130.678 6.74363C130.77 6.90508 130.898 7.02508 131.061 7.10363C131.227 7.18217 131.419 7.22144 131.637 7.22144C131.858 7.22144 132.05 7.18217 132.213 7.10363C132.379 7.02508 132.508 6.90508 132.599 6.74363C132.691 6.58218 132.737 6.37709 132.737 6.12837V2.90478Z" fill="#8794BA"/>
<path d="M161.132 2.90478V7.6698H160.5V2.90478H161.132ZM163.128 5.04839V5.56547H160.995V5.04839H163.128ZM163.452 2.90478V3.42187H160.995V2.90478H163.452ZM164.205 2.90478H165.783C166.14 2.90478 166.443 2.95933 166.689 3.06842C166.938 3.17751 167.127 3.33896 167.255 3.55277C167.386 3.76441 167.452 4.02513 167.452 4.33494C167.452 4.55312 167.407 4.75276 167.317 4.93384C167.23 5.11275 167.104 5.26547 166.938 5.39202C166.774 5.51638 166.578 5.60911 166.349 5.6702L166.172 5.73892H164.689L164.683 5.22511H165.802C166.029 5.22511 166.218 5.18584 166.368 5.10729C166.519 5.02657 166.632 4.91857 166.709 4.7833C166.785 4.64803 166.823 4.49858 166.823 4.33494C166.823 4.15167 166.787 3.99131 166.715 3.85386C166.643 3.71641 166.53 3.61059 166.375 3.53641C166.222 3.46005 166.025 3.42187 165.783 3.42187H164.837V7.6698H164.205V2.90478ZM166.99 7.6698L165.832 5.50983L166.489 5.50656L167.664 7.63053V7.6698H166.99ZM169.013 2.90478V7.6698H168.381V2.90478H169.013Z" fill="#8794BA"/>
<path d="M198.654 6.46546C198.654 6.35418 198.637 6.256 198.602 6.17091C198.569 6.08364 198.51 6.0051 198.425 5.93528C198.342 5.86546 198.227 5.79892 198.078 5.73565C197.932 5.67238 197.747 5.60801 197.522 5.54256C197.286 5.47274 197.074 5.39529 196.884 5.3102C196.694 5.22293 196.531 5.12366 196.396 5.01239C196.261 4.90112 196.157 4.77348 196.085 4.62948C196.013 4.48549 195.977 4.32076 195.977 4.13531C195.977 3.94986 196.015 3.77859 196.092 3.6215C196.168 3.46441 196.277 3.32805 196.419 3.21242C196.563 3.0946 196.734 3.00296 196.933 2.93751C197.131 2.87206 197.353 2.83933 197.597 2.83933C197.955 2.83933 198.258 2.90806 198.507 3.04551C198.758 3.18078 198.949 3.3586 199.08 3.57896C199.211 3.79713 199.276 4.03058 199.276 4.27931H198.648C198.648 4.1004 198.61 3.94222 198.533 3.80477C198.457 3.66514 198.341 3.55605 198.186 3.4775C198.031 3.39678 197.835 3.35641 197.597 3.35641C197.372 3.35641 197.187 3.39023 197.041 3.45787C196.895 3.5255 196.786 3.61714 196.714 3.73277C196.644 3.84841 196.609 3.9804 196.609 4.12876C196.609 4.22913 196.63 4.32076 196.671 4.40367C196.715 4.4844 196.781 4.55967 196.871 4.62948C196.962 4.6993 197.078 4.76366 197.218 4.82257C197.359 4.88148 197.528 4.93821 197.725 4.99275C197.995 5.06911 198.229 5.1542 198.425 5.24802C198.622 5.34184 198.783 5.44765 198.91 5.56547C199.038 5.6811 199.133 5.8131 199.194 5.96146C199.258 6.10764 199.289 6.27346 199.289 6.45891C199.289 6.65309 199.25 6.82872 199.171 6.98581C199.093 7.1429 198.98 7.27708 198.834 7.38835C198.688 7.49962 198.512 7.5858 198.307 7.64689C198.104 7.7058 197.878 7.73525 197.627 7.73525C197.406 7.73525 197.189 7.70471 196.975 7.64362C196.764 7.58253 196.571 7.49089 196.396 7.36871C196.224 7.24653 196.085 7.09599 195.981 6.91708C195.878 6.736 195.827 6.52655 195.827 6.28873H196.455C196.455 6.45236 196.487 6.59309 196.55 6.71091C196.613 6.82654 196.699 6.92254 196.808 6.9989C196.92 7.07526 197.045 7.13199 197.185 7.16908C197.327 7.20399 197.474 7.22144 197.627 7.22144C197.847 7.22144 198.034 7.1909 198.186 7.12981C198.339 7.06872 198.455 6.98145 198.533 6.86799C198.614 6.75454 198.654 6.62036 198.654 6.46546ZM201.858 3.32696L200.281 7.6698H199.636L201.452 2.90478H201.868L201.858 3.32696ZM203.18 7.6698L201.6 3.32696L201.59 2.90478H202.005L203.828 7.6698H203.18ZM203.099 5.90583V6.42291H200.422V5.90583H203.099ZM205.802 2.90478V7.6698H205.18V2.90478H205.802ZM207.333 2.90478V3.42187H203.652V2.90478H207.333Z" fill="#8794BA"/>
<path d="M234.367 6.46546C234.367 6.35418 234.349 6.256 234.314 6.17091C234.282 6.08364 234.223 6.0051 234.138 5.93528C234.055 5.86546 233.939 5.79892 233.791 5.73565C233.644 5.67238 233.459 5.60801 233.234 5.54256C232.999 5.47274 232.786 5.39529 232.596 5.3102C232.406 5.22293 232.244 5.12366 232.108 5.01239C231.973 4.90112 231.87 4.77348 231.798 4.62948C231.726 4.48549 231.69 4.32076 231.69 4.13531C231.69 3.94986 231.728 3.77859 231.804 3.6215C231.88 3.46441 231.99 3.32805 232.131 3.21242C232.275 3.0946 232.447 3.00296 232.645 2.93751C232.844 2.87206 233.065 2.83933 233.31 2.83933C233.667 2.83933 233.971 2.90806 234.219 3.04551C234.47 3.18078 234.661 3.3586 234.792 3.57896C234.923 3.79713 234.988 4.03058 234.988 4.27931H234.36C234.36 4.1004 234.322 3.94222 234.246 3.80477C234.169 3.66514 234.054 3.55605 233.899 3.4775C233.744 3.39678 233.547 3.35641 233.31 3.35641C233.085 3.35641 232.899 3.39023 232.753 3.45787C232.607 3.5255 232.498 3.61714 232.426 3.73277C232.356 3.84841 232.321 3.9804 232.321 4.12876C232.321 4.22913 232.342 4.32076 232.383 4.40367C232.427 4.4844 232.494 4.55967 232.583 4.62948C232.675 4.6993 232.79 4.76366 232.93 4.82257C233.072 4.88148 233.241 4.93821 233.437 4.99275C233.708 5.06911 233.941 5.1542 234.138 5.24802C234.334 5.34184 234.495 5.44765 234.622 5.56547C234.751 5.6811 234.846 5.8131 234.907 5.96146C234.97 6.10764 235.002 6.27346 235.002 6.45891C235.002 6.65309 234.962 6.82872 234.884 6.98581C234.805 7.1429 234.693 7.27708 234.547 7.38835C234.4 7.49962 234.225 7.5858 234.02 7.64689C233.817 7.7058 233.59 7.73525 233.339 7.73525C233.119 7.73525 232.902 7.70471 232.688 7.64362C232.476 7.58253 232.283 7.49089 232.108 7.36871C231.936 7.24653 231.798 7.09599 231.693 6.91708C231.59 6.736 231.539 6.52655 231.539 6.28873H232.167C232.167 6.45236 232.199 6.59309 232.262 6.71091C232.326 6.82654 232.412 6.92254 232.521 6.9989C232.632 7.07526 232.758 7.13199 232.897 7.16908C233.039 7.20399 233.186 7.22144 233.339 7.22144C233.559 7.22144 233.746 7.1909 233.899 7.12981C234.051 7.06872 234.167 6.98145 234.246 6.86799C234.326 6.75454 234.367 6.62036 234.367 6.46546ZM238.533 2.90478H239.161V6.12837C239.161 6.48618 239.081 6.784 238.922 7.02181C238.763 7.25962 238.551 7.43853 238.287 7.55853C238.025 7.67635 237.741 7.73525 237.433 7.73525C237.11 7.73525 236.818 7.67635 236.556 7.55853C236.296 7.43853 236.09 7.25962 235.937 7.02181C235.787 6.784 235.712 6.48618 235.712 6.12837V2.90478H236.337V6.12837C236.337 6.37709 236.383 6.58218 236.474 6.74363C236.566 6.90508 236.693 7.02508 236.857 7.10363C237.023 7.18217 237.215 7.22144 237.433 7.22144C237.653 7.22144 237.845 7.18217 238.009 7.10363C238.175 7.02508 238.304 6.90508 238.395 6.74363C238.487 6.58218 238.533 6.37709 238.533 6.12837V2.90478ZM243.818 2.90478V7.6698H243.183L240.784 3.99459V7.6698H240.153V2.90478H240.784L243.193 6.58982V2.90478H243.818Z" fill="#8794BA"/>
</svg>
