<svg width="260" height="174" viewBox="0 0 260 174" fill="none" xmlns="http://www.w3.org/2000/svg">
<path d="M26.9831 50.2098L87.8331 15.078L148.683 50.2098V120.473L87.8331 155.605L26.9831 120.473V50.2098Z" stroke="#EEEEF7" stroke-width="1.11667"/>
<path d="M48.2586 62.4932L87.8334 39.6447L127.408 62.4932V108.19L87.8334 131.039L48.2586 108.19V62.4932Z" stroke="#EEEEF7" stroke-width="1.11667"/>
<path d="M55.6808 66.9252L88.0363 40.2795L133.661 58.2035L136.928 112.925L88.0263 141.995L52.143 104.48L55.6808 66.9252Z" stroke="#0088F0" stroke-width="2.23333"/>
<path d="M41.2247 58.7606L87.4772 33.2142L113.092 71.3643L129.955 109.908H87.9866L58.6828 101.722L41.2247 58.7606Z" stroke="#EF2A82" stroke-width="2.23333"/>
<path d="M74.3692 77.5682L87.8333 69.7947L101.297 77.5682V93.1151L87.8333 100.889L74.3692 93.1151V77.5682Z" stroke="#EEEEF7" stroke-width="1.11667"/>
<path d="M222.128 48.9631H223.547C224.242 48.9631 224.815 48.8484 225.266 48.6191C225.725 48.3826 226.066 48.0638 226.288 47.6624C226.517 47.254 226.632 46.7953 226.632 46.2866C226.632 45.6846 226.531 45.1794 226.331 44.7709C226.13 44.3625 225.829 44.0543 225.428 43.8465C225.026 43.6387 224.518 43.5348 223.901 43.5348C223.342 43.5348 222.848 43.6458 222.418 43.868C221.995 44.083 221.662 44.3911 221.418 44.7924C221.182 45.1937 221.064 45.6667 221.064 46.2113H219.075C219.075 45.4159 219.276 44.6921 219.677 44.04C220.078 43.3879 220.641 42.8683 221.365 42.4814C222.095 42.0944 222.941 41.9009 223.901 41.9009C224.847 41.9009 225.675 42.0693 226.384 42.4061C227.094 42.7357 227.646 43.2302 228.04 43.8895C228.434 44.5416 228.631 45.355 228.631 46.3296C228.631 46.7237 228.538 47.1465 228.351 47.598C228.172 48.0423 227.889 48.4579 227.502 48.8449C227.123 49.2318 226.628 49.5507 226.019 49.8015C225.41 50.0452 224.679 50.167 223.826 50.167H222.128V48.9631ZM222.128 50.597V49.4038H223.826C224.822 49.4038 225.646 49.5221 226.298 49.7585C226.951 49.995 227.463 50.3103 227.836 50.7045C228.215 51.0986 228.48 51.5321 228.631 52.0051C228.789 52.4709 228.867 52.9367 228.867 53.4025C228.867 54.1334 228.742 54.782 228.491 55.3481C228.248 55.9142 227.9 56.3944 227.449 56.7885C227.004 57.1826 226.481 57.48 225.879 57.6807C225.277 57.8813 224.622 57.9816 223.912 57.9816C223.231 57.9816 222.59 57.8849 221.988 57.6914C221.393 57.4979 220.866 57.2185 220.408 56.853C219.949 56.4803 219.591 56.0253 219.333 55.4878C219.075 54.9432 218.946 54.3233 218.946 53.6282H220.935C220.935 54.1729 221.053 54.6494 221.289 55.0579C221.533 55.4663 221.877 55.7852 222.321 56.0145C222.773 56.2367 223.303 56.3478 223.912 56.3478C224.521 56.3478 225.044 56.2439 225.481 56.036C225.926 55.8211 226.266 55.4986 226.503 55.0686C226.746 54.6387 226.868 54.0976 226.868 53.4455C226.868 52.7934 226.732 52.2595 226.46 51.8439C226.187 51.4211 225.8 51.1093 225.299 50.9087C224.804 50.7009 224.22 50.597 223.547 50.597H222.128ZM242.186 52.4996V54.1334H230.878V52.9618L237.886 42.1159H239.509L237.768 45.2546L233.135 52.4996H242.186ZM240.004 42.1159V57.7667H238.015V42.1159H240.004ZM243.82 45.9533V45.1256C243.82 44.5309 243.949 43.9898 244.207 43.5025C244.464 43.0152 244.834 42.6247 245.314 42.3309C245.794 42.0371 246.364 41.8901 247.023 41.8901C247.696 41.8901 248.27 42.0371 248.743 42.3309C249.223 42.6247 249.592 43.0152 249.85 43.5025C250.108 43.9898 250.237 44.5309 250.237 45.1256V45.9533C250.237 46.5338 250.108 47.0677 249.85 47.555C249.599 48.0423 249.234 48.4328 248.753 48.7266C248.28 49.0204 247.711 49.1673 247.044 49.1673C246.378 49.1673 245.801 49.0204 245.314 48.7266C244.834 48.4328 244.464 48.0423 244.207 47.555C243.949 47.0677 243.82 46.5338 243.82 45.9533ZM245.314 45.1256V45.9533C245.314 46.283 245.375 46.5947 245.496 46.8885C245.625 47.1823 245.819 47.4224 246.077 47.6087C246.335 47.7879 246.657 47.8774 247.044 47.8774C247.431 47.8774 247.75 47.7879 248.001 47.6087C248.252 47.4224 248.438 47.1823 248.56 46.8885C248.682 46.5947 248.743 46.283 248.743 45.9533V45.1256C248.743 44.7888 248.678 44.4735 248.549 44.1797C248.427 43.8787 248.237 43.6387 247.979 43.4595C247.729 43.2732 247.41 43.18 247.023 43.18C246.643 43.18 246.324 43.2732 246.066 43.4595C245.815 43.6387 245.625 43.8787 245.496 44.1797C245.375 44.4735 245.314 44.7888 245.314 45.1256ZM251.441 54.7676V53.9292C251.441 53.3416 251.57 52.8041 251.828 52.3168C252.086 51.8295 252.455 51.439 252.935 51.1452C253.415 50.8514 253.985 50.7045 254.644 50.7045C255.318 50.7045 255.891 50.8514 256.364 51.1452C256.844 51.439 257.213 51.8295 257.471 52.3168C257.729 52.8041 257.858 53.3416 257.858 53.9292V54.7676C257.858 55.3553 257.729 55.8927 257.471 56.38C257.22 56.8673 256.855 57.2579 256.375 57.5517C255.902 57.8455 255.332 57.9924 254.665 57.9924C253.999 57.9924 253.426 57.8455 252.946 57.5517C252.465 57.2579 252.093 56.8673 251.828 56.38C251.57 55.8927 251.441 55.3553 251.441 54.7676ZM252.935 53.9292V54.7676C252.935 55.0973 252.996 55.4126 253.118 55.7136C253.247 56.0074 253.44 56.2474 253.698 56.4338C253.956 56.6129 254.278 56.7025 254.665 56.7025C255.052 56.7025 255.371 56.6129 255.622 56.4338C255.88 56.2474 256.07 56.0074 256.192 55.7136C256.314 55.4198 256.375 55.1045 256.375 54.7676V53.9292C256.375 53.5924 256.31 53.2771 256.181 52.9833C256.059 52.6895 255.869 52.453 255.611 52.2738C255.361 52.0875 255.038 51.9944 254.644 51.9944C254.264 51.9944 253.945 52.0875 253.687 52.2738C253.436 52.453 253.247 52.6895 253.118 52.9833C252.996 53.2771 252.935 53.5924 252.935 53.9292ZM255.138 44.341L247.496 56.5735L246.378 55.8641L254.02 43.6315L255.138 44.341Z" fill="#EF2A82"/>
<path d="M218.376 71.4124V71.2995C218.376 70.9168 218.432 70.5618 218.543 70.2347C218.654 69.9043 218.815 69.618 219.024 69.3759C219.233 69.1305 219.487 68.9408 219.785 68.8067C220.082 68.6693 220.416 68.6006 220.786 68.6006C221.159 68.6006 221.494 68.6693 221.792 68.8067C222.093 68.9408 222.348 69.1305 222.557 69.3759C222.77 69.618 222.932 69.9043 223.043 70.2347C223.154 70.5618 223.21 70.9168 223.21 71.2995V71.4124C223.21 71.7952 223.154 72.1501 223.043 72.4773C222.932 72.8044 222.77 73.0907 222.557 73.336C222.348 73.5781 222.094 73.7679 221.797 73.9053C221.502 74.0394 221.168 74.1065 220.796 74.1065C220.423 74.1065 220.087 74.0394 219.79 73.9053C219.492 73.7679 219.237 73.5781 219.024 73.336C218.815 73.0907 218.654 72.8044 218.543 72.4773C218.432 72.1501 218.376 71.7952 218.376 71.4124ZM219.284 71.2995V71.4124C219.284 71.6774 219.315 71.9277 219.377 72.1632C219.44 72.3955 219.533 72.6016 219.657 72.7815C219.785 72.9615 219.943 73.1038 220.133 73.2085C220.323 73.3099 220.544 73.3606 220.796 73.3606C221.044 73.3606 221.262 73.3099 221.448 73.2085C221.638 73.1038 221.795 72.9615 221.919 72.7815C222.044 72.6016 222.137 72.3955 222.199 72.1632C222.264 71.9277 222.297 71.6774 222.297 71.4124V71.2995C222.297 71.0378 222.264 70.7908 222.199 70.5586C222.137 70.323 222.042 70.1153 221.914 69.9353C221.79 69.7521 221.633 69.6082 221.443 69.5035C221.257 69.3988 221.038 69.3465 220.786 69.3465C220.537 69.3465 220.318 69.3988 220.128 69.5035C219.942 69.6082 219.785 69.7521 219.657 69.9353C219.533 70.1153 219.44 70.323 219.377 70.5586C219.315 70.7908 219.284 71.0378 219.284 71.2995ZM225.256 69.7194V76.0497H224.343V68.6987H225.178L225.256 69.7194ZM228.834 71.3094V71.4124C228.834 71.7984 228.788 72.1567 228.696 72.4871C228.605 72.8142 228.47 73.0989 228.294 73.3409C228.12 73.583 227.906 73.7711 227.651 73.9053C227.396 74.0394 227.103 74.1065 226.773 74.1065C226.436 74.1065 226.138 74.0509 225.879 73.9396C225.621 73.8284 225.402 73.6665 225.222 73.4538C225.042 73.2412 224.898 72.986 224.79 72.6883C224.685 72.3906 224.613 72.0553 224.574 71.6823V71.1327C224.613 70.7401 224.687 70.3884 224.795 70.0776C224.903 69.7669 225.045 69.5019 225.222 69.2827C225.402 69.0602 225.619 68.8917 225.875 68.7772C226.13 68.6595 226.424 68.6006 226.758 68.6006C227.092 68.6006 227.388 68.666 227.646 68.7969C227.904 68.9244 228.122 69.1076 228.299 69.3465C228.475 69.5853 228.608 69.8715 228.696 70.2052C228.788 70.5357 228.834 70.9037 228.834 71.3094ZM227.921 71.4124V71.3094C227.921 71.0444 227.893 70.7957 227.837 70.5635C227.782 70.3279 227.695 70.1218 227.577 69.9451C227.463 69.7652 227.316 69.6245 227.136 69.5231C226.956 69.4184 226.741 69.3661 226.493 69.3661C226.264 69.3661 226.064 69.4054 225.894 69.4839C225.727 69.5624 225.585 69.6687 225.467 69.8028C225.349 69.9337 225.253 70.0842 225.178 70.2543C225.106 70.4211 225.052 70.5945 225.016 70.7745V72.0454C225.081 72.2744 225.173 72.4904 225.291 72.6932C225.408 72.8928 225.565 73.0547 225.762 73.179C225.958 73.3001 226.205 73.3606 226.503 73.3606C226.748 73.3606 226.959 73.3099 227.136 73.2085C227.316 73.1038 227.463 72.9615 227.577 72.7815C227.695 72.6016 227.782 72.3955 227.837 72.1632C227.893 71.9277 227.921 71.6774 227.921 71.4124ZM232.215 68.6987V69.3955H229.344V68.6987H232.215ZM230.316 67.4081H231.223V72.6932C231.223 72.8731 231.251 73.0089 231.307 73.1005C231.362 73.1921 231.434 73.2526 231.523 73.2821C231.611 73.3115 231.706 73.3262 231.807 73.3262C231.883 73.3262 231.961 73.3197 232.043 73.3066C232.128 73.2902 232.192 73.2772 232.234 73.2673L232.239 74.0083C232.167 74.0312 232.072 74.0525 231.955 74.0721C231.84 74.095 231.701 74.1065 231.537 74.1065C231.315 74.1065 231.111 74.0623 230.924 73.974C230.738 73.8857 230.589 73.7384 230.477 73.5323C230.37 73.323 230.316 73.0416 230.316 72.6883V67.4081ZM234.266 68.6987V74.0083H233.353V68.6987H234.266ZM233.284 67.2903C233.284 67.1431 233.329 67.0188 233.417 66.9174C233.509 66.816 233.643 66.7653 233.819 66.7653C233.993 66.7653 234.125 66.816 234.217 66.9174C234.312 67.0188 234.359 67.1431 234.359 67.2903C234.359 67.431 234.312 67.5521 234.217 67.6535C234.125 67.7516 233.993 67.8007 233.819 67.8007C233.643 67.8007 233.509 67.7516 233.417 67.6535C233.329 67.5521 233.284 67.431 233.284 67.2903ZM235.483 71.4124V71.2995C235.483 70.9168 235.538 70.5618 235.65 70.2347C235.761 69.9043 235.921 69.618 236.131 69.3759C236.34 69.1305 236.594 68.9408 236.891 68.8067C237.189 68.6693 237.523 68.6006 237.892 68.6006C238.265 68.6006 238.601 68.6693 238.898 68.8067C239.199 68.9408 239.454 69.1305 239.664 69.3759C239.876 69.618 240.038 69.9043 240.15 70.2347C240.261 70.5618 240.316 70.9168 240.316 71.2995V71.4124C240.316 71.7952 240.261 72.1501 240.15 72.4773C240.038 72.8044 239.876 73.0907 239.664 73.336C239.454 73.5781 239.201 73.7679 238.903 73.9053C238.609 74.0394 238.275 74.1065 237.902 74.1065C237.529 74.1065 237.194 74.0394 236.896 73.9053C236.598 73.7679 236.343 73.5781 236.131 73.336C235.921 73.0907 235.761 72.8044 235.65 72.4773C235.538 72.1501 235.483 71.7952 235.483 71.4124ZM236.391 71.2995V71.4124C236.391 71.6774 236.422 71.9277 236.484 72.1632C236.546 72.3955 236.639 72.6016 236.764 72.7815C236.891 72.9615 237.05 73.1038 237.24 73.2085C237.429 73.3099 237.65 73.3606 237.902 73.3606C238.151 73.3606 238.368 73.3099 238.555 73.2085C238.745 73.1038 238.902 72.9615 239.026 72.7815C239.15 72.6016 239.243 72.3955 239.306 72.1632C239.371 71.9277 239.404 71.6774 239.404 71.4124V71.2995C239.404 71.0378 239.371 70.7908 239.306 70.5586C239.243 70.323 239.149 70.1153 239.021 69.9353C238.897 69.7521 238.74 69.6082 238.55 69.5035C238.363 69.3988 238.144 69.3465 237.892 69.3465C237.644 69.3465 237.424 69.3988 237.235 69.5035C237.048 69.6082 236.891 69.7521 236.764 69.9353C236.639 70.1153 236.546 70.323 236.484 70.5586C236.422 70.7908 236.391 71.0378 236.391 71.2995ZM242.363 69.8323V74.0083H241.455V68.6987H242.314L242.363 69.8323ZM242.147 71.1523L241.769 71.1376C241.772 70.7745 241.826 70.4391 241.931 70.1316C242.036 69.8208 242.183 69.5509 242.373 69.3219C242.562 69.0929 242.788 68.9163 243.05 68.7919C243.315 68.6644 243.608 68.6006 243.928 68.6006C244.19 68.6006 244.425 68.6366 244.635 68.7085C244.844 68.7772 245.023 68.8885 245.17 69.0422C245.32 69.196 245.435 69.3955 245.513 69.6409C245.592 69.883 245.631 70.1791 245.631 70.5291V74.0083H244.718V70.5193C244.718 70.2412 244.677 70.0188 244.596 69.8519C244.514 69.6818 244.394 69.5591 244.237 69.4839C244.08 69.4054 243.887 69.3661 243.658 69.3661C243.433 69.3661 243.226 69.4135 243.04 69.5084C242.857 69.6033 242.698 69.7341 242.564 69.901C242.433 70.0678 242.33 70.2592 242.255 70.4751C242.183 70.6878 242.147 70.9135 242.147 71.1523ZM252.388 66.8242V74.0083H251.48V67.9577L249.65 68.6251V67.8056L252.246 66.8242H252.388Z" fill="#8794BA"/>
<path d="M229.48 118.666V120.3H219.236V118.87L224.364 113.163C224.994 112.46 225.481 111.865 225.825 111.378C226.177 110.884 226.42 110.443 226.556 110.056C226.7 109.662 226.771 109.261 226.771 108.852C226.771 108.336 226.664 107.87 226.449 107.455C226.241 107.032 225.933 106.695 225.524 106.444C225.116 106.194 224.622 106.068 224.041 106.068C223.346 106.068 222.766 106.204 222.3 106.477C221.841 106.742 221.497 107.114 221.268 107.594C221.038 108.075 220.924 108.626 220.924 109.25H218.935C218.935 108.368 219.129 107.562 219.516 106.831C219.903 106.1 220.476 105.52 221.236 105.09C221.995 104.653 222.93 104.434 224.041 104.434C225.03 104.434 225.876 104.61 226.578 104.961C227.28 105.305 227.818 105.792 228.19 106.423C228.57 107.046 228.76 107.777 228.76 108.616C228.76 109.074 228.681 109.54 228.523 110.013C228.373 110.479 228.162 110.945 227.889 111.41C227.624 111.876 227.312 112.335 226.954 112.786C226.603 113.238 226.227 113.682 225.825 114.119L221.633 118.666H229.48ZM233.586 118.634H233.791C234.937 118.634 235.869 118.473 236.585 118.15C237.302 117.828 237.854 117.394 238.241 116.85C238.628 116.305 238.893 115.692 239.036 115.011C239.179 114.323 239.251 113.618 239.251 112.894V110.497C239.251 109.787 239.169 109.157 239.004 108.605C238.846 108.053 238.624 107.591 238.337 107.218C238.058 106.846 237.739 106.563 237.381 106.369C237.022 106.176 236.643 106.079 236.241 106.079C235.783 106.079 235.371 106.172 235.005 106.358C234.647 106.537 234.342 106.792 234.092 107.122C233.848 107.451 233.662 107.838 233.533 108.282C233.404 108.727 233.339 109.21 233.339 109.734C233.339 110.199 233.396 110.651 233.511 111.088C233.626 111.525 233.801 111.919 234.038 112.27C234.274 112.622 234.568 112.901 234.919 113.109C235.278 113.309 235.697 113.41 236.177 113.41C236.621 113.41 237.037 113.324 237.424 113.152C237.818 112.973 238.165 112.733 238.466 112.432C238.775 112.123 239.018 111.776 239.197 111.389C239.384 111.002 239.491 110.597 239.52 110.174H240.466C240.466 110.769 240.348 111.357 240.111 111.937C239.882 112.51 239.559 113.034 239.144 113.507C238.728 113.979 238.241 114.359 237.682 114.646C237.123 114.925 236.514 115.065 235.854 115.065C235.08 115.065 234.41 114.915 233.844 114.614C233.278 114.313 232.812 113.911 232.447 113.41C232.089 112.908 231.82 112.349 231.641 111.733C231.469 111.109 231.383 110.479 231.383 109.841C231.383 109.096 231.487 108.397 231.694 107.745C231.902 107.093 232.21 106.52 232.619 106.025C233.027 105.523 233.533 105.133 234.135 104.853C234.744 104.574 235.446 104.434 236.241 104.434C237.137 104.434 237.9 104.613 238.531 104.972C239.162 105.33 239.674 105.81 240.068 106.412C240.469 107.014 240.763 107.691 240.95 108.444C241.136 109.196 241.229 109.97 241.229 110.765V111.486C241.229 112.295 241.175 113.12 241.068 113.958C240.967 114.789 240.77 115.585 240.477 116.344C240.19 117.104 239.771 117.785 239.219 118.387C238.667 118.981 237.947 119.454 237.058 119.806C236.177 120.149 235.088 120.321 233.791 120.321H233.586V118.634ZM243.82 108.487V107.659C243.82 107.064 243.949 106.523 244.207 106.036C244.464 105.549 244.834 105.158 245.314 104.864C245.794 104.57 246.364 104.423 247.023 104.423C247.696 104.423 248.27 104.57 248.743 104.864C249.223 105.158 249.592 105.549 249.85 106.036C250.108 106.523 250.237 107.064 250.237 107.659V108.487C250.237 109.067 250.108 109.601 249.85 110.088C249.599 110.576 249.234 110.966 248.753 111.26C248.28 111.554 247.711 111.701 247.044 111.701C246.378 111.701 245.801 111.554 245.314 111.26C244.834 110.966 244.464 110.576 244.207 110.088C243.949 109.601 243.82 109.067 243.82 108.487ZM245.314 107.659V108.487C245.314 108.816 245.375 109.128 245.496 109.422C245.625 109.716 245.819 109.956 246.077 110.142C246.335 110.321 246.657 110.411 247.044 110.411C247.431 110.411 247.75 110.321 248.001 110.142C248.252 109.956 248.438 109.716 248.56 109.422C248.682 109.128 248.743 108.816 248.743 108.487V107.659C248.743 107.322 248.678 107.007 248.549 106.713C248.427 106.412 248.237 106.172 247.979 105.993C247.729 105.807 247.41 105.713 247.023 105.713C246.643 105.713 246.324 105.807 246.066 105.993C245.815 106.172 245.625 106.412 245.496 106.713C245.375 107.007 245.314 107.322 245.314 107.659ZM251.441 117.301V116.463C251.441 115.875 251.57 115.337 251.828 114.85C252.086 114.363 252.455 113.972 252.935 113.679C253.415 113.385 253.985 113.238 254.644 113.238C255.318 113.238 255.891 113.385 256.364 113.679C256.844 113.972 257.213 114.363 257.471 114.85C257.729 115.337 257.858 115.875 257.858 116.463V117.301C257.858 117.889 257.729 118.426 257.471 118.913C257.22 119.401 256.855 119.791 256.375 120.085C255.902 120.379 255.332 120.526 254.665 120.526C253.999 120.526 253.426 120.379 252.946 120.085C252.465 119.791 252.093 119.401 251.828 118.913C251.57 118.426 251.441 117.889 251.441 117.301ZM252.935 116.463V117.301C252.935 117.631 252.996 117.946 253.118 118.247C253.247 118.541 253.44 118.781 253.698 118.967C253.956 119.146 254.278 119.236 254.665 119.236C255.052 119.236 255.371 119.146 255.622 118.967C255.88 118.781 256.07 118.541 256.192 118.247C256.314 117.953 256.375 117.638 256.375 117.301V116.463C256.375 116.126 256.31 115.81 256.181 115.517C256.059 115.223 255.869 114.986 255.611 114.807C255.361 114.621 255.038 114.528 254.644 114.528C254.264 114.528 253.945 114.621 253.687 114.807C253.436 114.986 253.247 115.223 253.118 115.517C252.996 115.81 252.935 116.126 252.935 116.463ZM255.138 106.874L247.496 119.107L246.378 118.397L254.02 106.165L255.138 106.874Z" fill="#0088F0"/>
<path d="M218.376 133.946V133.833C218.376 133.45 218.432 133.095 218.543 132.768C218.654 132.438 218.815 132.151 219.024 131.909C219.233 131.664 219.487 131.474 219.785 131.34C220.082 131.203 220.416 131.134 220.786 131.134C221.159 131.134 221.494 131.203 221.792 131.34C222.093 131.474 222.348 131.664 222.557 131.909C222.77 132.151 222.932 132.438 223.043 132.768C223.154 133.095 223.21 133.45 223.21 133.833V133.946C223.21 134.328 223.154 134.683 223.043 135.011C222.932 135.338 222.77 135.624 222.557 135.869C222.348 136.111 222.094 136.301 221.797 136.439C221.502 136.573 221.168 136.64 220.796 136.64C220.423 136.64 220.087 136.573 219.79 136.439C219.492 136.301 219.237 136.111 219.024 135.869C218.815 135.624 218.654 135.338 218.543 135.011C218.432 134.683 218.376 134.328 218.376 133.946ZM219.284 133.833V133.946C219.284 134.211 219.315 134.461 219.377 134.697C219.44 134.929 219.533 135.135 219.657 135.315C219.785 135.495 219.943 135.637 220.133 135.742C220.323 135.843 220.544 135.894 220.796 135.894C221.044 135.894 221.262 135.843 221.448 135.742C221.638 135.637 221.795 135.495 221.919 135.315C222.044 135.135 222.137 134.929 222.199 134.697C222.264 134.461 222.297 134.211 222.297 133.946V133.833C222.297 133.571 222.264 133.324 222.199 133.092C222.137 132.856 222.042 132.649 221.914 132.469C221.79 132.285 221.633 132.142 221.443 132.037C221.257 131.932 221.038 131.88 220.786 131.88C220.537 131.88 220.318 131.932 220.128 132.037C219.942 132.142 219.785 132.285 219.657 132.469C219.533 132.649 219.44 132.856 219.377 133.092C219.315 133.324 219.284 133.571 219.284 133.833ZM225.256 132.253V138.583H224.343V131.232H225.178L225.256 132.253ZM228.834 133.843V133.946C228.834 134.332 228.788 134.69 228.696 135.02C228.605 135.348 228.47 135.632 228.294 135.874C228.12 136.116 227.906 136.304 227.651 136.439C227.396 136.573 227.103 136.64 226.773 136.64C226.436 136.64 226.138 136.584 225.879 136.473C225.621 136.362 225.402 136.2 225.222 135.987C225.042 135.774 224.898 135.519 224.79 135.222C224.685 134.924 224.613 134.589 224.574 134.216V133.666C224.613 133.273 224.687 132.922 224.795 132.611C224.903 132.3 225.045 132.035 225.222 131.816C225.402 131.594 225.619 131.425 225.875 131.311C226.13 131.193 226.424 131.134 226.758 131.134C227.092 131.134 227.388 131.199 227.646 131.33C227.904 131.458 228.122 131.641 228.299 131.88C228.475 132.119 228.608 132.405 228.696 132.739C228.788 133.069 228.834 133.437 228.834 133.843ZM227.921 133.946V133.843C227.921 133.578 227.893 133.329 227.837 133.097C227.782 132.861 227.695 132.655 227.577 132.478C227.463 132.299 227.316 132.158 227.136 132.056C226.956 131.952 226.741 131.899 226.493 131.899C226.264 131.899 226.064 131.939 225.894 132.017C225.727 132.096 225.585 132.202 225.467 132.336C225.349 132.467 225.253 132.618 225.178 132.788C225.106 132.954 225.052 133.128 225.016 133.308V134.579C225.081 134.808 225.173 135.024 225.291 135.227C225.408 135.426 225.565 135.588 225.762 135.712C225.958 135.833 226.205 135.894 226.503 135.894C226.748 135.894 226.959 135.843 227.136 135.742C227.316 135.637 227.463 135.495 227.577 135.315C227.695 135.135 227.782 134.929 227.837 134.697C227.893 134.461 227.921 134.211 227.921 133.946ZM232.215 131.232V131.929H229.344V131.232H232.215ZM230.316 129.941H231.223V135.227C231.223 135.406 231.251 135.542 231.307 135.634C231.362 135.725 231.434 135.786 231.523 135.815C231.611 135.845 231.706 135.86 231.807 135.86C231.883 135.86 231.961 135.853 232.043 135.84C232.128 135.824 232.192 135.81 232.234 135.801L232.239 136.542C232.167 136.565 232.072 136.586 231.955 136.605C231.84 136.628 231.701 136.64 231.537 136.64C231.315 136.64 231.111 136.596 230.924 136.507C230.738 136.419 230.589 136.272 230.477 136.066C230.37 135.856 230.316 135.575 230.316 135.222V129.941ZM234.266 131.232V136.542H233.353V131.232H234.266ZM233.284 129.824C233.284 129.676 233.329 129.552 233.417 129.451C233.509 129.349 233.643 129.299 233.819 129.299C233.993 129.299 234.125 129.349 234.217 129.451C234.312 129.552 234.359 129.676 234.359 129.824C234.359 129.964 234.312 130.085 234.217 130.187C234.125 130.285 233.993 130.334 233.819 130.334C233.643 130.334 233.509 130.285 233.417 130.187C233.329 130.085 233.284 129.964 233.284 129.824ZM235.483 133.946V133.833C235.483 133.45 235.538 133.095 235.65 132.768C235.761 132.438 235.921 132.151 236.131 131.909C236.34 131.664 236.594 131.474 236.891 131.34C237.189 131.203 237.523 131.134 237.892 131.134C238.265 131.134 238.601 131.203 238.898 131.34C239.199 131.474 239.454 131.664 239.664 131.909C239.876 132.151 240.038 132.438 240.15 132.768C240.261 133.095 240.316 133.45 240.316 133.833V133.946C240.316 134.328 240.261 134.683 240.15 135.011C240.038 135.338 239.876 135.624 239.664 135.869C239.454 136.111 239.201 136.301 238.903 136.439C238.609 136.573 238.275 136.64 237.902 136.64C237.529 136.64 237.194 136.573 236.896 136.439C236.598 136.301 236.343 136.111 236.131 135.869C235.921 135.624 235.761 135.338 235.65 135.011C235.538 134.683 235.483 134.328 235.483 133.946ZM236.391 133.833V133.946C236.391 134.211 236.422 134.461 236.484 134.697C236.546 134.929 236.639 135.135 236.764 135.315C236.891 135.495 237.05 135.637 237.24 135.742C237.429 135.843 237.65 135.894 237.902 135.894C238.151 135.894 238.368 135.843 238.555 135.742C238.745 135.637 238.902 135.495 239.026 135.315C239.15 135.135 239.243 134.929 239.306 134.697C239.371 134.461 239.404 134.211 239.404 133.946V133.833C239.404 133.571 239.371 133.324 239.306 133.092C239.243 132.856 239.149 132.649 239.021 132.469C238.897 132.285 238.74 132.142 238.55 132.037C238.363 131.932 238.144 131.88 237.892 131.88C237.644 131.88 237.424 131.932 237.235 132.037C237.048 132.142 236.891 132.285 236.764 132.469C236.639 132.649 236.546 132.856 236.484 133.092C236.422 133.324 236.391 133.571 236.391 133.833ZM242.363 132.366V136.542H241.455V131.232H242.314L242.363 132.366ZM242.147 133.686L241.769 133.671C241.772 133.308 241.826 132.972 241.931 132.665C242.036 132.354 242.183 132.084 242.373 131.855C242.562 131.626 242.788 131.45 243.05 131.325C243.315 131.198 243.608 131.134 243.928 131.134C244.19 131.134 244.425 131.17 244.635 131.242C244.844 131.311 245.023 131.422 245.17 131.576C245.32 131.729 245.435 131.929 245.513 132.174C245.592 132.416 245.631 132.712 245.631 133.062V136.542H244.718V133.053C244.718 132.775 244.677 132.552 244.596 132.385C244.514 132.215 244.394 132.092 244.237 132.017C244.08 131.939 243.887 131.899 243.658 131.899C243.433 131.899 243.226 131.947 243.04 132.042C242.857 132.137 242.698 132.267 242.564 132.434C242.433 132.601 242.33 132.793 242.255 133.008C242.183 133.221 242.147 133.447 242.147 133.686ZM254.086 135.796V136.542H249.41V135.889L251.75 133.283C252.038 132.963 252.261 132.691 252.418 132.469C252.578 132.243 252.689 132.042 252.751 131.865C252.817 131.685 252.85 131.502 252.85 131.315C252.85 131.08 252.8 130.867 252.702 130.678C252.607 130.485 252.467 130.331 252.28 130.216C252.094 130.102 251.868 130.044 251.603 130.044C251.286 130.044 251.021 130.107 250.808 130.231C250.599 130.352 250.442 130.522 250.337 130.741C250.232 130.961 250.18 131.212 250.18 131.497H249.272C249.272 131.095 249.36 130.727 249.537 130.393C249.714 130.059 249.976 129.794 250.322 129.598C250.669 129.398 251.096 129.299 251.603 129.299C252.055 129.299 252.441 129.379 252.761 129.539C253.082 129.696 253.327 129.919 253.497 130.206C253.671 130.491 253.757 130.825 253.757 131.208C253.757 131.417 253.721 131.63 253.649 131.845C253.581 132.058 253.484 132.271 253.36 132.483C253.239 132.696 253.097 132.905 252.933 133.112C252.773 133.318 252.601 133.52 252.418 133.72L250.504 135.796H254.086Z" fill="#8794BA"/>
<path d="M81.8801 2.68555V7.47501H81.2749V3.44127L80.0546 3.88619V3.33985L81.7852 2.68555H81.8801ZM86.663 6.18604C86.663 6.47611 86.5954 6.72256 86.4602 6.9254C86.3271 7.12605 86.1461 7.27872 85.9171 7.3834C85.6903 7.48809 85.434 7.54044 85.1483 7.54044C84.8626 7.54044 84.6052 7.48809 84.3762 7.3834C84.1472 7.27872 83.9662 7.12605 83.8332 6.9254C83.7001 6.72256 83.6336 6.47611 83.6336 6.18604C83.6336 5.9963 83.6696 5.82291 83.7416 5.66588C83.8157 5.50666 83.9193 5.36817 84.0523 5.2504C84.1876 5.13262 84.3468 5.04211 84.53 4.97886C84.7154 4.91343 84.9193 4.88072 85.1417 4.88072C85.434 4.88072 85.6946 4.93742 85.9236 5.05084C86.1526 5.16207 86.3326 5.31583 86.4634 5.51212C86.5965 5.7084 86.663 5.93305 86.663 6.18604ZM86.0545 6.17296C86.0545 5.9963 86.0163 5.84035 85.94 5.70513C85.8637 5.56773 85.7568 5.46086 85.6194 5.38453C85.482 5.30819 85.3228 5.27003 85.1417 5.27003C84.9564 5.27003 84.7961 5.30819 84.6608 5.38453C84.5278 5.46086 84.4242 5.56773 84.35 5.70513C84.2759 5.84035 84.2388 5.9963 84.2388 6.17296C84.2388 6.35616 84.2748 6.51319 84.3468 6.64405C84.4209 6.77273 84.5256 6.87196 84.6608 6.94175C84.7982 7.00936 84.9607 7.04317 85.1483 7.04317C85.3359 7.04317 85.4972 7.00936 85.6325 6.94175C85.7677 6.87196 85.8713 6.77273 85.9433 6.64405C86.0174 6.51319 86.0545 6.35616 86.0545 6.17296ZM86.5518 3.95162C86.5518 4.1828 86.4907 4.39109 86.3686 4.57647C86.2464 4.76186 86.0796 4.90798 85.868 5.01485C85.6565 5.12172 85.4166 5.17515 85.1483 5.17515C84.8757 5.17515 84.6325 5.12172 84.4187 5.01485C84.2072 4.90798 84.0414 4.76186 83.9215 4.57647C83.8015 4.39109 83.7416 4.1828 83.7416 3.95162C83.7416 3.67463 83.8015 3.43908 83.9215 3.24498C84.0436 3.05087 84.2105 2.90256 84.422 2.80006C84.6336 2.69755 84.8746 2.6463 85.145 2.6463C85.4176 2.6463 85.6597 2.69755 85.8713 2.80006C86.0828 2.90256 86.2486 3.05087 86.3686 3.24498C86.4907 3.43908 86.5518 3.67463 86.5518 3.95162ZM85.9465 3.96143C85.9465 3.80222 85.9127 3.66155 85.8451 3.53941C85.7775 3.41728 85.6837 3.32131 85.5638 3.25152C85.4438 3.17955 85.3042 3.14356 85.145 3.14356C84.9858 3.14356 84.8462 3.17737 84.7263 3.24498C84.6085 3.31041 84.5158 3.40419 84.4482 3.52632C84.3828 3.64846 84.35 3.7935 84.35 3.96143C84.35 4.12501 84.3828 4.26786 84.4482 4.39C84.5158 4.51213 84.6096 4.607 84.7295 4.67462C84.8495 4.74223 84.9891 4.77603 85.1483 4.77603C85.3075 4.77603 85.446 4.74223 85.5638 4.67462C85.6837 4.607 85.7775 4.51213 85.8451 4.39C85.9127 4.26786 85.9465 4.12501 85.9465 3.96143ZM88.7535 5.20132V5.69859H87.157V5.20132H88.7535ZM92.4012 6.97774V7.47501H89.2834V7.0399L90.8439 5.30274C91.0359 5.089 91.1842 4.90798 91.2889 4.75967C91.3957 4.60919 91.4699 4.47506 91.5113 4.35728C91.5549 4.23733 91.5768 4.11519 91.5768 3.99088C91.5768 3.83384 91.544 3.69208 91.4786 3.56558C91.4154 3.4369 91.3216 3.3344 91.1973 3.25806C91.0729 3.18173 90.9225 3.14356 90.7458 3.14356C90.5342 3.14356 90.3576 3.185 90.2158 3.26788C90.0762 3.34857 89.9715 3.46199 89.9018 3.60811C89.832 3.75424 89.7971 3.92217 89.7971 4.11192H89.1918C89.1918 3.84366 89.2507 3.5983 89.3685 3.37584C89.4863 3.15338 89.6608 2.97672 89.8919 2.84586C90.1231 2.71282 90.4077 2.6463 90.7458 2.6463C91.0468 2.6463 91.3041 2.69973 91.5179 2.8066C91.7316 2.91129 91.8952 3.05959 92.0086 3.25152C92.1242 3.44127 92.182 3.66373 92.182 3.9189C92.182 4.05849 92.158 4.20025 92.11 4.3442C92.0642 4.48596 91.9999 4.62772 91.917 4.76949C91.8363 4.91125 91.7414 5.05084 91.6324 5.18824C91.5255 5.32564 91.411 5.46086 91.2889 5.5939L90.013 6.97774H92.4012ZM96.2681 5.87198V6.36924H92.8265V6.01265L94.9595 2.71172H95.4535L94.9235 3.667L93.5135 5.87198H96.2681ZM95.604 2.71172V7.47501H94.9987V2.71172H95.604Z" fill="#8794BA"/>
<path d="M161.737 50.5277V51.025H158.619V50.5899L160.179 48.8527C160.371 48.639 160.52 48.458 160.624 48.3097C160.731 48.1592 160.805 48.025 160.847 47.9073C160.89 47.7873 160.912 47.6652 160.912 47.5409C160.912 47.3838 160.879 47.2421 160.814 47.1156C160.751 46.9869 160.657 46.8844 160.533 46.8081C160.408 46.7317 160.258 46.6935 160.081 46.6935C159.87 46.6935 159.693 46.735 159.551 46.8179C159.412 46.8986 159.307 47.012 159.237 47.1581C159.167 47.3042 159.133 47.4722 159.133 47.6619H158.527C158.527 47.3936 158.586 47.1483 158.704 46.9258C158.822 46.7034 158.996 46.5267 159.227 46.3958C159.459 46.2628 159.743 46.1963 160.081 46.1963C160.382 46.1963 160.64 46.2497 160.853 46.3566C161.067 46.4613 161.231 46.6096 161.344 46.8015C161.46 46.9913 161.517 47.2137 161.517 47.4689C161.517 47.6085 161.493 47.7502 161.445 47.8942C161.4 48.0359 161.335 48.1777 161.252 48.3195C161.172 48.4612 161.077 48.6008 160.968 48.7382C160.861 48.8756 160.746 49.0109 160.624 49.1439L159.348 50.5277H161.737ZM163.15 48.7579L162.666 48.6335L162.905 46.2617H165.348V46.8211H163.418L163.274 48.1166C163.361 48.0665 163.472 48.0196 163.605 47.976C163.74 47.9324 163.895 47.9105 164.069 47.9105C164.289 47.9105 164.487 47.9487 164.661 48.025C164.836 48.0992 164.984 48.2061 165.106 48.3456C165.231 48.4852 165.325 48.6532 165.391 48.8495C165.456 49.0457 165.489 49.2649 165.489 49.507C165.489 49.736 165.457 49.9465 165.394 50.1384C165.333 50.3303 165.24 50.4983 165.116 50.6422C164.992 50.784 164.835 50.8941 164.645 50.9727C164.457 51.0512 164.236 51.0904 163.981 51.0904C163.789 51.0904 163.607 51.0643 163.435 51.0119C163.264 50.9574 163.112 50.8756 162.977 50.7665C162.843 50.6553 162.734 50.5179 162.649 50.3543C162.566 50.1886 162.514 49.9945 162.492 49.772H163.068C163.094 49.9509 163.147 50.1013 163.225 50.2235C163.304 50.3456 163.406 50.4383 163.533 50.5016C163.661 50.5626 163.811 50.5932 163.981 50.5932C164.125 50.5932 164.252 50.5681 164.364 50.5179C164.475 50.4678 164.569 50.3958 164.645 50.302C164.721 50.2082 164.779 50.0948 164.818 49.9618C164.86 49.8287 164.881 49.6793 164.881 49.5136C164.881 49.3631 164.86 49.2235 164.818 49.0948C164.777 48.9661 164.715 48.8538 164.632 48.7579C164.551 48.6619 164.452 48.5877 164.334 48.5354C164.216 48.4809 164.081 48.4536 163.929 48.4536C163.726 48.4536 163.572 48.4809 163.467 48.5354C163.365 48.5899 163.259 48.6641 163.15 48.7579ZM167.478 48.7513V49.2486H165.882V48.7513H167.478ZM168.888 48.3456H169.32C169.531 48.3456 169.706 48.3108 169.843 48.241C169.983 48.169 170.087 48.0719 170.154 47.9498C170.224 47.8255 170.259 47.6859 170.259 47.531C170.259 47.3478 170.228 47.1941 170.167 47.0698C170.106 46.9455 170.015 46.8517 169.892 46.7884C169.77 46.7252 169.615 46.6935 169.428 46.6935C169.258 46.6935 169.107 46.7274 168.976 46.795C168.848 46.8604 168.746 46.9542 168.672 47.0763C168.6 47.1984 168.564 47.3424 168.564 47.5081H167.959C167.959 47.2661 168.02 47.0458 168.142 46.8473C168.264 46.6488 168.436 46.4907 168.656 46.3729C168.878 46.2552 169.136 46.1963 169.428 46.1963C169.716 46.1963 169.968 46.2475 170.184 46.35C170.4 46.4504 170.567 46.6009 170.687 46.8015C170.807 47 170.867 47.2475 170.867 47.5441C170.867 47.6641 170.839 47.7928 170.782 47.9302C170.728 48.0654 170.642 48.1919 170.524 48.3097C170.408 48.4274 170.258 48.5245 170.072 48.6008C169.887 48.675 169.665 48.7121 169.405 48.7121H168.888V48.3456ZM168.888 48.8429V48.4798H169.405C169.708 48.4798 169.959 48.5158 170.157 48.5877C170.356 48.6597 170.512 48.7557 170.625 48.8756C170.741 48.9956 170.822 49.1275 170.867 49.2715C170.915 49.4132 170.939 49.555 170.939 49.6968C170.939 49.9192 170.901 50.1166 170.825 50.2889C170.751 50.4612 170.645 50.6073 170.507 50.7273C170.372 50.8472 170.213 50.9378 170.03 50.9988C169.847 51.0599 169.647 51.0904 169.431 51.0904C169.224 51.0904 169.029 51.061 168.846 51.0021C168.665 50.9432 168.504 50.8581 168.365 50.7469C168.225 50.6335 168.116 50.495 168.037 50.3314C167.959 50.1657 167.92 49.977 167.92 49.7655H168.525C168.525 49.9312 168.561 50.0763 168.633 50.2006C168.707 50.3249 168.812 50.422 168.947 50.4917C169.084 50.5594 169.246 50.5932 169.431 50.5932C169.617 50.5932 169.776 50.5615 169.909 50.4983C170.044 50.4329 170.148 50.3347 170.22 50.2039C170.294 50.073 170.331 49.9083 170.331 49.7099C170.331 49.5114 170.289 49.3489 170.206 49.2224C170.124 49.0937 170.006 48.9989 169.853 48.9378C169.703 48.8745 169.525 48.8429 169.32 48.8429H168.888ZM174.993 49.422V49.9192H171.551V49.5626L173.684 46.2617H174.178L173.648 47.217L172.238 49.422H174.993ZM174.329 46.2617V51.025H173.723V46.2617H174.329Z" fill="#8794BA"/>
<path d="M159.499 121.487H159.931C160.142 121.487 160.317 121.452 160.454 121.383C160.594 121.311 160.697 121.214 160.765 121.091C160.835 120.967 160.87 120.828 160.87 120.673C160.87 120.49 160.839 120.336 160.778 120.211C160.717 120.087 160.625 119.993 160.503 119.93C160.381 119.867 160.226 119.835 160.039 119.835C159.869 119.835 159.718 119.869 159.587 119.937C159.459 120.002 159.357 120.096 159.283 120.218C159.211 120.34 159.175 120.484 159.175 120.65H158.57C158.57 120.408 158.631 120.187 158.753 119.989C158.875 119.791 159.046 119.632 159.267 119.515C159.489 119.397 159.746 119.338 160.039 119.338C160.327 119.338 160.579 119.389 160.794 119.492C161.01 119.592 161.178 119.743 161.298 119.943C161.418 120.142 161.478 120.389 161.478 120.686C161.478 120.806 161.45 120.934 161.393 121.072C161.339 121.207 161.252 121.334 161.135 121.451C161.019 121.569 160.869 121.666 160.683 121.742C160.498 121.817 160.275 121.854 160.016 121.854H159.499V121.487ZM159.499 121.985V121.621H160.016C160.319 121.621 160.57 121.657 160.768 121.729C160.967 121.801 161.123 121.897 161.236 122.017C161.352 122.137 161.432 122.269 161.478 122.413C161.526 122.555 161.55 122.697 161.55 122.838C161.55 123.061 161.512 123.258 161.436 123.431C161.361 123.603 161.256 123.749 161.118 123.869C160.983 123.989 160.824 124.079 160.641 124.14C160.457 124.202 160.258 124.232 160.042 124.232C159.835 124.232 159.64 124.203 159.456 124.144C159.275 124.085 159.115 124 158.975 123.889C158.836 123.775 158.727 123.637 158.648 123.473C158.57 123.307 158.531 123.119 158.531 122.907H159.136C159.136 123.073 159.172 123.218 159.244 123.342C159.318 123.467 159.423 123.564 159.558 123.633C159.695 123.701 159.857 123.735 160.042 123.735C160.227 123.735 160.387 123.703 160.52 123.64C160.655 123.575 160.758 123.476 160.83 123.346C160.905 123.215 160.942 123.05 160.942 122.852C160.942 122.653 160.9 122.491 160.817 122.364C160.734 122.235 160.617 122.141 160.464 122.079C160.314 122.016 160.136 121.985 159.931 121.985H159.499ZM163.15 121.9L162.666 121.775L162.905 119.403H165.348V119.963H163.418L163.274 121.258C163.361 121.208 163.472 121.161 163.605 121.118C163.74 121.074 163.895 121.052 164.069 121.052C164.289 121.052 164.487 121.09 164.661 121.167C164.836 121.241 164.984 121.348 165.106 121.487C165.231 121.627 165.325 121.795 165.391 121.991C165.456 122.187 165.489 122.407 165.489 122.649C165.489 122.878 165.457 123.088 165.394 123.28C165.333 123.472 165.24 123.64 165.116 123.784C164.992 123.926 164.835 124.036 164.645 124.114C164.457 124.193 164.236 124.232 163.981 124.232C163.789 124.232 163.607 124.206 163.435 124.154C163.264 124.099 163.112 124.017 162.977 123.908C162.843 123.797 162.734 123.66 162.649 123.496C162.566 123.33 162.514 123.136 162.492 122.914H163.068C163.094 123.093 163.147 123.243 163.225 123.365C163.304 123.487 163.406 123.58 163.533 123.643C163.661 123.704 163.811 123.735 163.981 123.735C164.125 123.735 164.252 123.71 164.364 123.66C164.475 123.609 164.569 123.537 164.645 123.444C164.721 123.35 164.779 123.236 164.818 123.103C164.86 122.97 164.881 122.821 164.881 122.655C164.881 122.505 164.86 122.365 164.818 122.236C164.777 122.108 164.715 121.995 164.632 121.9C164.551 121.804 164.452 121.729 164.334 121.677C164.216 121.623 164.081 121.595 163.929 121.595C163.726 121.595 163.572 121.623 163.467 121.677C163.365 121.732 163.259 121.806 163.15 121.9ZM167.478 121.893V122.39H165.882V121.893H167.478ZM171.224 122.564V123.061H167.782V122.704L169.915 119.403H170.409L169.879 120.359L168.469 122.564H171.224ZM170.56 119.403V124.167H169.955V119.403H170.56ZM174.993 122.564V123.061H171.551V122.704L173.684 119.403H174.178L173.648 120.359L172.238 122.564H174.993ZM174.329 119.403V124.167H173.723V119.403H174.329Z" fill="#8794BA"/>
<path d="M83.1102 170.022V170.519H79.6686V170.163L81.8016 166.862H82.2956L81.7656 167.817L80.3556 170.022H83.1102ZM82.446 166.862V171.625H81.8408V166.862H82.446ZM84.4253 169.358L83.9411 169.234L84.1799 166.862H86.6237V167.421H84.6936L84.5496 168.717C84.6368 168.666 84.747 168.62 84.88 168.576C85.0153 168.532 85.1701 168.511 85.3446 168.511C85.5649 168.511 85.7622 168.549 85.9367 168.625C86.1112 168.699 86.2595 168.806 86.3816 168.946C86.506 169.085 86.6008 169.253 86.6663 169.449C86.7317 169.646 86.7644 169.865 86.7644 170.107C86.7644 170.336 86.7328 170.547 86.6695 170.738C86.6085 170.93 86.5158 171.098 86.3915 171.242C86.2671 171.384 86.1101 171.494 85.9204 171.573C85.7328 171.651 85.5114 171.69 85.2562 171.69C85.0643 171.69 84.8822 171.664 84.7099 171.612C84.5398 171.557 84.3871 171.476 84.2519 171.367C84.1189 171.255 84.0098 171.118 83.9248 170.954C83.8419 170.789 83.7895 170.594 83.7677 170.372H84.3435C84.3697 170.551 84.422 170.701 84.5005 170.823C84.5791 170.946 84.6816 171.038 84.8081 171.102C84.9367 171.163 85.0861 171.193 85.2562 171.193C85.4002 171.193 85.5278 171.168 85.639 171.118C85.7502 171.068 85.844 170.996 85.9204 170.902C85.9967 170.808 86.0545 170.695 86.0937 170.562C86.1352 170.429 86.1559 170.279 86.1559 170.114C86.1559 169.963 86.1352 169.824 86.0937 169.695C86.0523 169.566 85.9902 169.454 85.9073 169.358C85.8266 169.262 85.7273 169.188 85.6096 169.135C85.4918 169.081 85.3566 169.054 85.2039 169.054C85.0011 169.054 84.8473 169.081 84.7426 169.135C84.6401 169.19 84.5343 169.264 84.4253 169.358ZM88.7535 169.351V169.849H87.157V169.351H88.7535ZM90.0457 169.358L89.5615 169.234L89.8003 166.862H92.2441V167.421H90.314L90.17 168.717C90.2573 168.666 90.3674 168.62 90.5004 168.576C90.6357 168.532 90.7905 168.511 90.965 168.511C91.1853 168.511 91.3826 168.549 91.5571 168.625C91.7316 168.699 91.8799 168.806 92.0021 168.946C92.1264 169.085 92.2212 169.253 92.2867 169.449C92.3521 169.646 92.3848 169.865 92.3848 170.107C92.3848 170.336 92.3532 170.547 92.2899 170.738C92.2289 170.93 92.1362 171.098 92.0119 171.242C91.8875 171.384 91.7305 171.494 91.5408 171.573C91.3532 171.651 91.1318 171.69 90.8767 171.69C90.6847 171.69 90.5026 171.664 90.3303 171.612C90.1602 171.557 90.0075 171.476 89.8723 171.367C89.7393 171.255 89.6302 171.118 89.5452 170.954C89.4623 170.789 89.4099 170.594 89.3881 170.372H89.9639C89.9901 170.551 90.0424 170.701 90.1209 170.823C90.1995 170.946 90.302 171.038 90.4285 171.102C90.5571 171.163 90.7065 171.193 90.8767 171.193C91.0206 171.193 91.1482 171.168 91.2594 171.118C91.3707 171.068 91.4644 170.996 91.5408 170.902C91.6171 170.808 91.6749 170.695 91.7142 170.562C91.7556 170.429 91.7763 170.279 91.7763 170.114C91.7763 169.963 91.7556 169.824 91.7142 169.695C91.6727 169.566 91.6106 169.454 91.5277 169.358C91.447 169.262 91.3478 169.188 91.23 169.135C91.1122 169.081 90.977 169.054 90.8243 169.054C90.6215 169.054 90.4677 169.081 90.363 169.135C90.2605 169.19 90.1548 169.264 90.0457 169.358ZM96.2681 170.022V170.519H92.8265V170.163L94.9595 166.862H95.4535L94.9235 167.817L93.5135 170.022H96.2681ZM95.604 166.862V171.625H94.9987V166.862H95.604Z" fill="#8794BA"/>
<path d="M1.93145 121.9L1.44727 121.775L1.68608 119.403H4.12988V119.963H2.19971L2.05576 121.258C2.143 121.208 2.25314 121.161 2.38618 121.118C2.5214 121.074 2.67625 121.052 2.85073 121.052C3.07101 121.052 3.26839 121.09 3.44287 121.167C3.61735 121.241 3.76566 121.348 3.88779 121.487C4.01211 121.627 4.10698 121.795 4.17241 121.991C4.23784 122.187 4.27056 122.407 4.27056 122.649C4.27056 122.878 4.23893 123.088 4.17568 123.28C4.11462 123.472 4.02192 123.64 3.89761 123.784C3.77329 123.926 3.61626 124.036 3.42651 124.114C3.23895 124.193 3.01758 124.232 2.7624 124.232C2.57048 124.232 2.38836 124.206 2.21606 124.154C2.04595 124.099 1.89328 124.017 1.75806 123.908C1.62502 123.797 1.51597 123.66 1.43091 123.496C1.34803 123.33 1.29569 123.136 1.27388 122.914H1.84966C1.87583 123.093 1.92817 123.243 2.00669 123.365C2.0852 123.487 2.18771 123.58 2.31421 123.643C2.44289 123.704 2.59228 123.735 2.7624 123.735C2.90635 123.735 3.03394 123.71 3.14517 123.66C3.2564 123.609 3.35018 123.537 3.42651 123.444C3.50285 123.35 3.56064 123.236 3.5999 123.103C3.64134 122.97 3.66206 122.821 3.66206 122.655C3.66206 122.505 3.64134 122.365 3.5999 122.236C3.55846 122.108 3.49631 121.995 3.41343 121.9C3.33273 121.804 3.2335 121.729 3.11572 121.677C2.99795 121.623 2.86273 121.595 2.71006 121.595C2.50723 121.595 2.35347 121.623 2.24878 121.677C2.14627 121.732 2.04049 121.806 1.93145 121.9ZM5.7002 121.9L5.21602 121.775L5.45483 119.403H7.89863V119.963H5.96846L5.82451 121.258C5.91175 121.208 6.02189 121.161 6.15493 121.118C6.29015 121.074 6.445 121.052 6.61948 121.052C6.83976 121.052 7.03714 121.09 7.21162 121.167C7.3861 121.241 7.53441 121.348 7.65654 121.487C7.78086 121.627 7.87573 121.795 7.94116 121.991C8.00659 122.187 8.03931 122.407 8.03931 122.649C8.03931 122.878 8.00768 123.088 7.94443 123.28C7.88337 123.472 7.79067 123.64 7.66636 123.784C7.54204 123.926 7.38501 124.036 7.19526 124.114C7.0077 124.193 6.78633 124.232 6.53115 124.232C6.33922 124.232 6.15711 124.206 5.98481 124.154C5.8147 124.099 5.66203 124.017 5.52681 123.908C5.39377 123.797 5.28472 123.66 5.19966 123.496C5.11678 123.33 5.06444 123.136 5.04263 122.914H5.61841C5.64458 123.093 5.69692 123.243 5.77544 123.365C5.85395 123.487 5.95646 123.58 6.08296 123.643C6.21164 123.704 6.36103 123.735 6.53115 123.735C6.6751 123.735 6.80269 123.71 6.91392 123.66C7.02515 123.609 7.11893 123.537 7.19526 123.444C7.2716 123.35 7.32939 123.236 7.36865 123.103C7.41009 122.97 7.43081 122.821 7.43081 122.655C7.43081 122.505 7.41009 122.365 7.36865 122.236C7.32721 122.108 7.26506 121.995 7.18218 121.9C7.10148 121.804 7.00225 121.729 6.88447 121.677C6.7667 121.623 6.63148 121.595 6.47881 121.595C6.27598 121.595 6.12222 121.623 6.01753 121.677C5.91502 121.732 5.80924 121.806 5.7002 121.9ZM10.0284 121.893V122.39H8.43188V121.893H10.0284ZM12.8778 119.397H12.9302V119.91H12.8778C12.5572 119.91 12.289 119.963 12.073 120.067C11.8571 120.17 11.6859 120.308 11.5594 120.483C11.4329 120.655 11.3413 120.849 11.2846 121.065C11.2301 121.281 11.2028 121.5 11.2028 121.723V122.423C11.2028 122.635 11.2279 122.822 11.2781 122.986C11.3282 123.147 11.3969 123.283 11.4842 123.395C11.5714 123.506 11.6696 123.59 11.7786 123.646C11.8898 123.703 12.0054 123.732 12.1254 123.732C12.265 123.732 12.3893 123.705 12.4983 123.653C12.6074 123.599 12.699 123.523 12.7731 123.427C12.8495 123.329 12.9073 123.214 12.9465 123.081C12.9858 122.947 13.0054 122.801 13.0054 122.642C13.0054 122.5 12.988 122.364 12.9531 122.233C12.9182 122.1 12.8647 121.982 12.7928 121.88C12.7208 121.775 12.6303 121.693 12.5212 121.635C12.4144 121.573 12.2868 121.543 12.1385 121.543C11.9705 121.543 11.8135 121.584 11.6674 121.667C11.5234 121.748 11.4046 121.855 11.3108 121.988C11.2192 122.119 11.1668 122.262 11.1538 122.416L10.8332 122.413C10.8637 122.169 10.9204 121.961 11.0033 121.788C11.0883 121.614 11.193 121.472 11.3173 121.363C11.4438 121.252 11.5845 121.171 11.7394 121.121C11.8964 121.069 12.0621 121.042 12.2366 121.042C12.4743 121.042 12.6794 121.087 12.8517 121.177C13.024 121.266 13.1657 121.386 13.277 121.536C13.3882 121.685 13.47 121.853 13.5223 122.04C13.5768 122.226 13.6041 122.416 13.6041 122.613C13.6041 122.837 13.5725 123.048 13.5092 123.244C13.446 123.44 13.3511 123.613 13.2246 123.761C13.1003 123.909 12.9465 124.025 12.7633 124.108C12.5801 124.191 12.3675 124.232 12.1254 124.232C11.868 124.232 11.6434 124.18 11.4515 124.075C11.2595 123.968 11.1003 123.826 10.9738 123.65C10.8473 123.473 10.7525 123.277 10.6892 123.061C10.626 122.845 10.5943 122.626 10.5943 122.403V122.119C10.5943 121.783 10.6281 121.454 10.6958 121.131C10.7634 120.808 10.88 120.516 11.0458 120.254C11.2137 119.992 11.446 119.784 11.7426 119.629C12.0392 119.474 12.4176 119.397 12.8778 119.397ZM17.543 122.564V123.061H14.1014V122.704L16.2344 119.403H16.7284L16.1984 120.359L14.7884 122.564H17.543ZM16.8789 119.403V124.167H16.2736V119.403H16.8789Z" fill="#8794BA"/>
<path d="M5.57402 46.2552H5.62637V46.7688H5.57402C5.25342 46.7688 4.98516 46.8211 4.76924 46.9258C4.55332 47.0283 4.38211 47.1668 4.25562 47.3413C4.12912 47.5136 4.03752 47.7077 3.98081 47.9236C3.92629 48.1395 3.89902 48.3587 3.89902 48.5812V49.2813C3.89902 49.4928 3.9241 49.6804 3.97427 49.844C4.02443 50.0054 4.09313 50.1417 4.18037 50.2529C4.26761 50.3642 4.36576 50.4481 4.4748 50.5048C4.58604 50.5615 4.70163 50.5899 4.82158 50.5899C4.96117 50.5899 5.08548 50.5637 5.19453 50.5114C5.30358 50.4568 5.39518 50.3816 5.46934 50.2856C5.54567 50.1875 5.60347 50.0719 5.64272 49.9389C5.68198 49.8058 5.70161 49.6597 5.70161 49.5005C5.70161 49.3587 5.68416 49.2224 5.64927 49.0915C5.61437 48.9585 5.56094 48.8407 5.48896 48.7382C5.41699 48.6335 5.32648 48.5518 5.21743 48.4929C5.11056 48.4318 4.98298 48.4013 4.83467 48.4013C4.66673 48.4013 4.5097 48.4427 4.36357 48.5256C4.21963 48.6063 4.10077 48.7131 4.00698 48.8462C3.91538 48.977 3.86304 49.1199 3.84995 49.2747L3.52935 49.2715C3.55988 49.0272 3.61659 48.8189 3.69946 48.6466C3.78452 48.4721 3.88921 48.3304 4.01353 48.2213C4.14002 48.1101 4.2807 48.0294 4.43555 47.9792C4.59258 47.9269 4.75833 47.9007 4.93281 47.9007C5.17054 47.9007 5.37555 47.9454 5.54785 48.0349C5.72015 48.1243 5.86191 48.2442 5.97314 48.3947C6.08438 48.543 6.16616 48.711 6.21851 48.8985C6.27303 49.0839 6.30029 49.2747 6.30029 49.471C6.30029 49.6957 6.26867 49.9061 6.20542 50.1024C6.14217 50.2987 6.0473 50.471 5.9208 50.6193C5.79648 50.7676 5.64272 50.8832 5.45952 50.9661C5.27632 51.049 5.06367 51.0904 4.82158 51.0904C4.56423 51.0904 4.33958 51.0381 4.14766 50.9334C3.95573 50.8265 3.79652 50.6848 3.67002 50.5081C3.54352 50.3314 3.44865 50.1352 3.3854 49.9192C3.32215 49.7033 3.29053 49.4841 3.29053 49.2617V48.977C3.29053 48.6412 3.32433 48.3118 3.39194 47.9891C3.45955 47.6663 3.57624 47.374 3.74199 47.1123C3.90993 46.8506 4.1422 46.6423 4.43882 46.4874C4.73543 46.3326 5.11383 46.2552 5.57402 46.2552ZM7.78555 48.7579L7.30137 48.6335L7.54019 46.2617H9.98398V46.8211H8.05381L7.90986 48.1166C7.9971 48.0665 8.10724 48.0196 8.24028 47.976C8.3755 47.9324 8.53036 47.9105 8.70483 47.9105C8.92511 47.9105 9.12249 47.9487 9.29697 48.025C9.47145 48.0992 9.61976 48.2061 9.74189 48.3456C9.86621 48.4852 9.96108 48.6532 10.0265 48.8495C10.0919 49.0457 10.1247 49.2649 10.1247 49.507C10.1247 49.736 10.093 49.9465 10.0298 50.1384C9.96872 50.3303 9.87603 50.4983 9.75171 50.6422C9.62739 50.784 9.47036 50.8941 9.28062 50.9727C9.09305 51.0512 8.87168 51.0904 8.6165 51.0904C8.42458 51.0904 8.24246 51.0643 8.07017 51.0119C7.90005 50.9574 7.74738 50.8756 7.61216 50.7665C7.47912 50.6553 7.37007 50.5179 7.28501 50.3543C7.20213 50.1886 7.14979 49.9945 7.12798 49.772H7.70376C7.72993 49.9509 7.78228 50.1013 7.86079 50.2235C7.93931 50.3456 8.04181 50.4383 8.16831 50.5016C8.29699 50.5626 8.44639 50.5932 8.6165 50.5932C8.76045 50.5932 8.88804 50.5681 8.99927 50.5179C9.1105 50.4678 9.20428 50.3958 9.28062 50.302C9.35695 50.2082 9.41475 50.0948 9.454 49.9618C9.49544 49.8287 9.51616 49.6793 9.51616 49.5136C9.51616 49.3631 9.49544 49.2235 9.454 49.0948C9.41257 48.9661 9.35041 48.8538 9.26753 48.7579C9.18683 48.6619 9.0876 48.5877 8.96982 48.5354C8.85205 48.4809 8.71683 48.4536 8.56416 48.4536C8.36133 48.4536 8.20757 48.4809 8.10288 48.5354C8.00037 48.5899 7.8946 48.6641 7.78555 48.7579ZM13.913 48.47V49.0392H10.6481V48.47H13.913ZM12.5848 47.0796V50.5474H11.9796V47.0796H12.5848Z" fill="#8794BA"/>
</svg>
