<svg width="272" height="152" viewBox="0 0 272 152" fill="none" xmlns="http://www.w3.org/2000/svg">
<rect x="24.2749" y="0.116699" width="0.558333" height="151.308" fill="#EEEEF7"/>
<rect x="59.4502" y="0.116699" width="0.558333" height="151.308" fill="#EEEEF7"/>
<rect x="94.625" y="0.116699" width="0.558333" height="151.308" fill="#EEEEF7"/>
<rect x="129.8" y="0.116699" width="0.558333" height="151.308" fill="#EEEEF7"/>
<rect x="164.975" y="0.116699" width="0.558333" height="151.308" fill="#EEEEF7"/>
<rect x="200.15" y="0.116699" width="0.558333" height="151.308" fill="#EEEEF7"/>
<rect x="235.325" y="0.116699" width="0.558333" height="151.308" fill="#EEEEF7"/>
<rect x="270.5" y="0.116699" width="0.558333" height="151.308" fill="#EEEEF7"/>
<path d="M2.05991 11.5496L1.57573 11.4253L1.81455 9.05343H4.25835V9.61285H2.32818L2.18423 10.9084C2.27147 10.8582 2.38161 10.8113 2.51465 10.7677C2.64987 10.7241 2.80472 10.7023 2.9792 10.7023C3.19948 10.7023 3.39686 10.7404 3.57134 10.8168C3.74582 10.8909 3.89413 10.9978 4.01626 11.1374C4.14058 11.2769 4.23545 11.4449 4.30088 11.6412C4.36631 11.8375 4.39902 12.0567 4.39902 12.2987C4.39902 12.5277 4.3674 12.7382 4.30415 12.9301C4.24308 13.1221 4.15039 13.29 4.02608 13.4339C3.90176 13.5757 3.74473 13.6859 3.55498 13.7644C3.36742 13.8429 3.14605 13.8821 2.89087 13.8821C2.69894 13.8821 2.51683 13.856 2.34453 13.8036C2.17442 13.7491 2.02175 13.6673 1.88652 13.5583C1.75348 13.447 1.64444 13.3096 1.55938 13.1461C1.4765 12.9803 1.42416 12.7862 1.40235 12.5637H1.97813C2.0043 12.7426 2.05664 12.8931 2.13516 13.0152C2.21367 13.1373 2.31618 13.23 2.44268 13.2933C2.57136 13.3543 2.72075 13.3849 2.89087 13.3849C3.03482 13.3849 3.1624 13.3598 3.27363 13.3096C3.38486 13.2595 3.47865 13.1875 3.55498 13.0937C3.63132 12.9999 3.68911 12.8865 3.72837 12.7535C3.76981 12.6204 3.79053 12.471 3.79053 12.3053C3.79053 12.1548 3.76981 12.0152 3.72837 11.8865C3.68693 11.7579 3.62477 11.6455 3.5419 11.5496C3.4612 11.4536 3.36196 11.3795 3.24419 11.3271C3.12642 11.2726 2.9912 11.2453 2.83853 11.2453C2.63569 11.2453 2.48193 11.2726 2.37725 11.3271C2.27474 11.3816 2.16896 11.4558 2.05991 11.5496ZM8.28228 12.2137V12.7109H4.84068V12.3544L6.97368 9.05343H7.46768L6.9377 10.0087L5.52769 12.2137H8.28228ZM7.61817 9.05343V13.8167H7.01294V9.05343H7.61817ZM10.1568 11.543V12.0403H8.56035V11.543H10.1568ZM13.0063 9.04689H13.0586V9.56051H13.0063C12.6857 9.56051 12.4174 9.61285 12.2015 9.71754C11.9856 9.82005 11.8144 9.95854 11.6879 10.133C11.5614 10.3053 11.4698 10.4994 11.4131 10.7153C11.3586 10.9313 11.3313 11.1505 11.3313 11.3729V12.073C11.3313 12.2846 11.3564 12.4721 11.4065 12.6357C11.4567 12.7971 11.5254 12.9334 11.6126 13.0446C11.6999 13.1559 11.798 13.2398 11.9071 13.2965C12.0183 13.3533 12.1339 13.3816 12.2539 13.3816C12.3934 13.3816 12.5178 13.3554 12.6268 13.3031C12.7359 13.2486 12.8275 13.1733 12.9016 13.0774C12.9779 12.9792 13.0357 12.8636 13.075 12.7306C13.1143 12.5975 13.1339 12.4514 13.1339 12.2922C13.1339 12.1504 13.1164 12.0141 13.0815 11.8833C13.0466 11.7502 12.9932 11.6325 12.9212 11.5299C12.8493 11.4253 12.7588 11.3435 12.6497 11.2846C12.5428 11.2235 12.4153 11.193 12.2669 11.193C12.099 11.193 11.942 11.2344 11.7959 11.3173C11.6519 11.398 11.533 11.5049 11.4393 11.6379C11.3477 11.7688 11.2953 11.9116 11.2822 12.0665L10.9616 12.0632C10.9922 11.8189 11.0489 11.6106 11.1317 11.4383C11.2168 11.2639 11.3215 11.1221 11.4458 11.013C11.5723 10.9018 11.713 10.8211 11.8678 10.771C12.0249 10.7186 12.1906 10.6924 12.3651 10.6924C12.6028 10.6924 12.8078 10.7372 12.9801 10.8266C13.1524 10.916 13.2942 11.0359 13.4054 11.1864C13.5167 11.3347 13.5984 11.5027 13.6508 11.6902C13.7053 11.8756 13.7326 12.0665 13.7326 12.2628C13.7326 12.4874 13.7009 12.6979 13.6377 12.8942C13.5744 13.0904 13.4796 13.2627 13.3531 13.411C13.2288 13.5594 13.075 13.6749 12.8918 13.7578C12.7086 13.8407 12.4959 13.8821 12.2539 13.8821C11.9965 13.8821 11.7719 13.8298 11.5799 13.7251C11.388 13.6182 11.2288 13.4765 11.1023 13.2998C10.9758 13.1232 10.8809 12.9269 10.8177 12.7109C10.7544 12.495 10.7228 12.2758 10.7228 12.0534V11.7688C10.7228 11.4329 10.7566 11.1036 10.8242 10.7808C10.8918 10.458 11.0085 10.1657 11.1743 9.90402C11.3422 9.6423 11.5745 9.43401 11.8711 9.27916C12.1677 9.12431 12.5461 9.04689 13.0063 9.04689ZM15.2178 11.5496L14.7336 11.4253L14.9725 9.05343H17.4163V9.61285H15.4861L15.3421 10.9084C15.4294 10.8582 15.5395 10.8113 15.6726 10.7677C15.8078 10.7241 15.9626 10.7023 16.1371 10.7023C16.3574 10.7023 16.5548 10.7404 16.7292 10.8168C16.9037 10.8909 17.052 10.9978 17.1742 11.1374C17.2985 11.2769 17.3934 11.4449 17.4588 11.6412C17.5242 11.8375 17.5569 12.0567 17.5569 12.2987C17.5569 12.5277 17.5253 12.7382 17.4621 12.9301C17.401 13.1221 17.3083 13.29 17.184 13.4339C17.0597 13.5757 16.9026 13.6859 16.7129 13.7644C16.5253 13.8429 16.304 13.8821 16.0488 13.8821C15.8569 13.8821 15.6747 13.856 15.5024 13.8036C15.3323 13.7491 15.1797 13.6673 15.0444 13.5583C14.9114 13.447 14.8023 13.3096 14.7173 13.1461C14.6344 12.9803 14.5821 12.7862 14.5603 12.5637H15.136C15.1622 12.7426 15.2146 12.8931 15.2931 13.0152C15.3716 13.1373 15.4741 13.23 15.6006 13.2933C15.7293 13.3543 15.8787 13.3849 16.0488 13.3849C16.1927 13.3849 16.3203 13.3598 16.4315 13.3096C16.5428 13.2595 16.6366 13.1875 16.7129 13.0937C16.7892 12.9999 16.847 12.8865 16.8863 12.7535C16.9277 12.6204 16.9484 12.471 16.9484 12.3053C16.9484 12.1548 16.9277 12.0152 16.8863 11.8865C16.8448 11.7579 16.7827 11.6455 16.6998 11.5496C16.6191 11.4536 16.5199 11.3795 16.4021 11.3271C16.2843 11.2726 16.1491 11.2453 15.9964 11.2453C15.7936 11.2453 15.6398 11.2726 15.5352 11.3271C15.4327 11.3816 15.3269 11.4558 15.2178 11.5496Z" fill="#8794BA"/>
<path d="M4.51353 43.4803V43.9776H1.07193V43.621L3.20493 40.3201H3.69893L3.16895 41.2754L1.75894 43.4803H4.51353ZM3.84942 40.3201V45.0834H3.24419V40.3201H3.84942ZM5.82866 42.8162L5.34448 42.6919L5.5833 40.3201H8.0271V40.8795H6.09692L5.95298 42.175C6.04022 42.1249 6.15036 42.078 6.2834 42.0344C6.41862 41.9907 6.57347 41.9689 6.74795 41.9689C6.96823 41.9689 7.16561 42.0071 7.34009 42.0834C7.51457 42.1576 7.66288 42.2644 7.78501 42.404C7.90933 42.5436 8.0042 42.7115 8.06963 42.9078C8.13506 43.1041 8.16777 43.3233 8.16777 43.5654C8.16777 43.7944 8.13615 44.0049 8.0729 44.1968C8.01183 44.3887 7.91914 44.5567 7.79483 44.7006C7.67051 44.8424 7.51348 44.9525 7.32373 45.031C7.13617 45.1095 6.9148 45.1488 6.65962 45.1488C6.46769 45.1488 6.28558 45.1226 6.11328 45.0703C5.94317 45.0158 5.7905 44.934 5.65527 44.8249C5.52223 44.7137 5.41318 44.5763 5.32813 44.4127C5.24525 44.247 5.1929 44.0529 5.17109 43.8304H5.74688C5.77305 44.0092 5.82539 44.1597 5.90391 44.2819C5.98242 44.404 6.08493 44.4967 6.21143 44.5599C6.34011 44.621 6.4895 44.6515 6.65962 44.6515C6.80357 44.6515 6.93115 44.6265 7.04238 44.5763C7.15361 44.5261 7.2474 44.4542 7.32373 44.3604C7.40007 44.2666 7.45786 44.1532 7.49712 44.0201C7.53856 43.8871 7.55928 43.7377 7.55928 43.5719C7.55928 43.4215 7.53856 43.2819 7.49712 43.1532C7.45568 43.0245 7.39352 42.9122 7.31065 42.8162C7.22995 42.7203 7.13071 42.6461 7.01294 42.5938C6.89517 42.5392 6.75995 42.512 6.60728 42.512C6.40444 42.512 6.25068 42.5392 6.146 42.5938C6.04349 42.6483 5.93771 42.7225 5.82866 42.8162ZM10.1568 42.8097V43.307H8.56035V42.8097H10.1568ZM11.4491 42.8162L10.9649 42.6919L11.2037 40.3201H13.6475V40.8795H11.7173L11.5734 42.175C11.6606 42.1249 11.7708 42.078 11.9038 42.0344C12.039 41.9907 12.1939 41.9689 12.3684 41.9689C12.5886 41.9689 12.786 42.0071 12.9605 42.0834C13.135 42.1576 13.2833 42.2644 13.4054 42.404C13.5297 42.5436 13.6246 42.7115 13.69 42.9078C13.7555 43.1041 13.7882 43.3233 13.7882 43.5654C13.7882 43.7944 13.7566 44.0049 13.6933 44.1968C13.6322 44.3887 13.5396 44.5567 13.4152 44.7006C13.2909 44.8424 13.1339 44.9525 12.9441 45.031C12.7566 45.1095 12.5352 45.1488 12.28 45.1488C12.0881 45.1488 11.906 45.1226 11.7337 45.0703C11.5636 45.0158 11.4109 44.934 11.2757 44.8249C11.1426 44.7137 11.0336 44.5763 10.9485 44.4127C10.8657 44.247 10.8133 44.0529 10.7915 43.8304H11.3673C11.3935 44.0092 11.4458 44.1597 11.5243 44.2819C11.6028 44.404 11.7053 44.4967 11.8318 44.5599C11.9605 44.621 12.1099 44.6515 12.28 44.6515C12.424 44.6515 12.5516 44.6265 12.6628 44.5763C12.774 44.5261 12.8678 44.4542 12.9441 44.3604C13.0205 44.2666 13.0783 44.1532 13.1175 44.0201C13.159 43.8871 13.1797 43.7377 13.1797 43.5719C13.1797 43.4215 13.159 43.2819 13.1175 43.1532C13.0761 43.0245 13.0139 42.9122 12.9311 42.8162C12.8504 42.7203 12.7511 42.6461 12.6333 42.5938C12.5156 42.5392 12.3804 42.512 12.2277 42.512C12.0249 42.512 11.8711 42.5392 11.7664 42.5938C11.6639 42.6483 11.5581 42.7225 11.4491 42.8162ZM17.6714 43.4803V43.9776H14.2298V43.621L16.3628 40.3201H16.8568L16.3269 41.2754L14.9168 43.4803H17.6714ZM17.0073 40.3201V45.0834H16.4021V40.3201H17.0073Z" fill="#8794BA"/>
<path d="M2.17769 73.6706H2.60952C2.82108 73.6706 2.99556 73.6357 3.13296 73.5659C3.27254 73.494 3.37614 73.3969 3.44375 73.2748C3.51354 73.1505 3.54844 73.0109 3.54844 72.856C3.54844 72.6728 3.5179 72.5191 3.45684 72.3948C3.39577 72.2704 3.30417 72.1767 3.18203 72.1134C3.0599 72.0502 2.90505 72.0185 2.71748 72.0185C2.54736 72.0185 2.39688 72.0523 2.26602 72.1199C2.13734 72.1854 2.03592 72.2792 1.96177 72.4013C1.8898 72.5234 1.85381 72.6674 1.85381 72.8331H1.24859C1.24859 72.591 1.30965 72.3708 1.43179 72.1723C1.55392 71.9738 1.72513 71.8157 1.94541 71.6979C2.16787 71.5802 2.42523 71.5213 2.71748 71.5213C3.00537 71.5213 3.25728 71.5725 3.47319 71.675C3.68911 71.7754 3.85705 71.9258 3.977 72.1265C4.09696 72.325 4.15693 72.5725 4.15693 72.8691C4.15693 72.9891 4.12858 73.1177 4.07188 73.2552C4.01735 73.3904 3.9312 73.5169 3.81343 73.6346C3.69784 73.7524 3.54735 73.8495 3.36196 73.9258C3.17658 74 2.95412 74.037 2.69458 74.037H2.17769V73.6706ZM2.17769 74.1679V73.8048H2.69458C2.99774 73.8048 3.24855 73.8407 3.44702 73.9127C3.64549 73.9847 3.80143 74.0807 3.91484 74.2006C4.03044 74.3206 4.11113 74.4525 4.15693 74.5965C4.20492 74.7382 4.22891 74.88 4.22891 75.0218C4.22891 75.2442 4.19074 75.4416 4.11441 75.6139C4.04025 75.7862 3.93447 75.9323 3.79707 76.0523C3.66185 76.1722 3.50264 76.2627 3.31943 76.3238C3.13623 76.3849 2.93667 76.4154 2.72075 76.4154C2.51356 76.4154 2.31836 76.386 2.13516 76.3271C1.95414 76.2682 1.79383 76.1831 1.65425 76.0719C1.51467 75.9585 1.40562 75.82 1.3271 75.6564C1.24859 75.4907 1.20933 75.302 1.20933 75.0905H1.81455C1.81455 75.2562 1.85054 75.4012 1.92251 75.5256C1.99666 75.6499 2.10135 75.7469 2.23657 75.8167C2.37398 75.8843 2.53537 75.9181 2.72075 75.9181C2.90614 75.9181 3.06535 75.8865 3.19839 75.8233C3.33361 75.7578 3.43721 75.6597 3.50918 75.5288C3.58333 75.398 3.62041 75.2333 3.62041 75.0348C3.62041 74.8364 3.57897 74.6739 3.4961 74.5474C3.41322 74.4187 3.29544 74.3238 3.14277 74.2628C2.99229 74.1995 2.81454 74.1679 2.60952 74.1679H2.17769ZM5.82866 74.0828L5.34448 73.9585L5.5833 71.5867H8.0271V72.1461H6.09692L5.95298 73.4416C6.04022 73.3915 6.15036 73.3446 6.2834 73.301C6.41862 73.2573 6.57347 73.2355 6.74795 73.2355C6.96823 73.2355 7.16561 73.2737 7.34009 73.35C7.51457 73.4242 7.66288 73.531 7.78501 73.6706C7.90933 73.8102 8.0042 73.9781 8.06963 74.1744C8.13506 74.3707 8.16777 74.5899 8.16777 74.832C8.16777 75.061 8.13615 75.2715 8.0729 75.4634C8.01183 75.6553 7.91914 75.8233 7.79483 75.9672C7.67051 76.109 7.51348 76.2191 7.32373 76.2976C7.13617 76.3761 6.9148 76.4154 6.65962 76.4154C6.46769 76.4154 6.28558 76.3892 6.11328 76.3369C5.94317 76.2824 5.7905 76.2006 5.65527 76.0915C5.52223 75.9803 5.41318 75.8429 5.32813 75.6793C5.24525 75.5136 5.1929 75.3195 5.17109 75.097H5.74688C5.77305 75.2758 5.82539 75.4263 5.90391 75.5485C5.98242 75.6706 6.08493 75.7633 6.21143 75.8265C6.34011 75.8876 6.4895 75.9181 6.65962 75.9181C6.80357 75.9181 6.93115 75.8931 7.04238 75.8429C7.15361 75.7927 7.2474 75.7208 7.32373 75.627C7.40007 75.5332 7.45786 75.4198 7.49712 75.2867C7.53856 75.1537 7.55928 75.0043 7.55928 74.8385C7.55928 74.6881 7.53856 74.5485 7.49712 74.4198C7.45568 74.2911 7.39352 74.1788 7.31065 74.0828C7.22995 73.9869 7.13071 73.9127 7.01294 73.8604C6.89517 73.8059 6.75995 73.7786 6.60728 73.7786C6.40444 73.7786 6.25068 73.8059 6.146 73.8604C6.04349 73.9149 5.93771 73.9891 5.82866 74.0828ZM10.1568 74.0763V74.5736H8.56035V74.0763H10.1568ZM13.9027 74.7469V75.2442H10.4611V74.8876L12.5941 71.5867H13.0881L12.5581 72.542L11.1481 74.7469H13.9027ZM13.2386 71.5867V76.35H12.6333V71.5867H13.2386ZM17.6714 74.7469V75.2442H14.2298V74.8876L16.3628 71.5867H16.8568L16.3269 72.542L14.9168 74.7469H17.6714ZM17.0073 71.5867V76.35H16.4021V71.5867H17.0073Z" fill="#8794BA"/>
<path d="M4.41538 107.119V107.617H1.29766V107.182L2.85816 105.444C3.05008 105.231 3.19839 105.05 3.30308 104.901C3.40995 104.751 3.4841 104.617 3.52554 104.499C3.56916 104.379 3.59097 104.257 3.59097 104.133C3.59097 103.976 3.55825 103.834 3.49282 103.707C3.42957 103.579 3.33579 103.476 3.21148 103.4C3.08716 103.323 2.93667 103.285 2.76001 103.285C2.54846 103.285 2.37179 103.327 2.23003 103.41C2.09045 103.49 1.98576 103.604 1.91597 103.75C1.84618 103.896 1.81128 104.064 1.81128 104.254H1.20606C1.20606 103.985 1.26494 103.74 1.38272 103.518C1.50049 103.295 1.67497 103.118 1.90615 102.988C2.13734 102.855 2.42196 102.788 2.76001 102.788C3.06099 102.788 3.31834 102.841 3.53208 102.948C3.74582 103.053 3.90939 103.201 4.0228 103.393C4.1384 103.583 4.19619 103.805 4.19619 104.061C4.19619 104.2 4.1722 104.342 4.12422 104.486C4.07842 104.628 4.01408 104.769 3.9312 104.911C3.85051 105.053 3.75563 105.193 3.64658 105.33C3.53971 105.467 3.42521 105.603 3.30308 105.736L2.0272 107.119H4.41538ZM5.82866 105.35L5.34448 105.225L5.5833 102.853H8.0271V103.413H6.09692L5.95298 104.708C6.04022 104.658 6.15036 104.611 6.2834 104.568C6.41862 104.524 6.57347 104.502 6.74795 104.502C6.96823 104.502 7.16561 104.54 7.34009 104.617C7.51457 104.691 7.66288 104.798 7.78501 104.937C7.90933 105.077 8.0042 105.245 8.06963 105.441C8.13506 105.637 8.16777 105.857 8.16777 106.099C8.16777 106.328 8.13615 106.538 8.0729 106.73C8.01183 106.922 7.91914 107.09 7.79483 107.234C7.67051 107.376 7.51348 107.486 7.32373 107.564C7.13617 107.643 6.9148 107.682 6.65962 107.682C6.46769 107.682 6.28558 107.656 6.11328 107.604C5.94317 107.549 5.7905 107.467 5.65527 107.358C5.52223 107.247 5.41318 107.11 5.32813 106.946C5.24525 106.78 5.1929 106.586 5.17109 106.364H5.74688C5.77305 106.543 5.82539 106.693 5.90391 106.815C5.98242 106.937 6.08493 107.03 6.21143 107.093C6.34011 107.154 6.4895 107.185 6.65962 107.185C6.80357 107.185 6.93115 107.16 7.04238 107.11C7.15361 107.059 7.2474 106.987 7.32373 106.894C7.40007 106.8 7.45786 106.687 7.49712 106.553C7.53856 106.42 7.55928 106.271 7.55928 106.105C7.55928 105.955 7.53856 105.815 7.49712 105.687C7.45568 105.558 7.39352 105.446 7.31065 105.35C7.22995 105.254 7.13071 105.179 7.01294 105.127C6.89517 105.073 6.75995 105.045 6.60728 105.045C6.40444 105.045 6.25068 105.073 6.146 105.127C6.04349 105.182 5.93771 105.256 5.82866 105.35ZM10.1568 105.343V105.84H8.56035V105.343H10.1568ZM11.5668 104.937H11.9987C12.2102 104.937 12.3847 104.902 12.5221 104.833C12.6617 104.761 12.7653 104.664 12.8329 104.542C12.9027 104.417 12.9376 104.278 12.9376 104.123C12.9376 103.94 12.9071 103.786 12.846 103.661C12.7849 103.537 12.6933 103.443 12.5712 103.38C12.4491 103.317 12.2942 103.285 12.1066 103.285C11.9365 103.285 11.786 103.319 11.6552 103.387C11.5265 103.452 11.4251 103.546 11.3509 103.668C11.279 103.79 11.243 103.934 11.243 104.1H10.6377C10.6377 103.858 10.6988 103.637 10.8209 103.439C10.9431 103.241 11.1143 103.082 11.3346 102.965C11.557 102.847 11.8144 102.788 12.1066 102.788C12.3945 102.788 12.6464 102.839 12.8624 102.942C13.0783 103.042 13.2462 103.193 13.3662 103.393C13.4861 103.592 13.5461 103.839 13.5461 104.136C13.5461 104.256 13.5177 104.384 13.461 104.522C13.4065 104.657 13.3204 104.784 13.2026 104.901C13.087 105.019 12.9365 105.116 12.7511 105.193C12.5657 105.267 12.3433 105.304 12.0837 105.304H11.5668V104.937ZM11.5668 105.435V105.071H12.0837C12.3869 105.071 12.6377 105.107 12.8362 105.179C13.0347 105.251 13.1906 105.347 13.304 105.467C13.4196 105.587 13.5003 105.719 13.5461 105.863C13.5941 106.005 13.6181 106.147 13.6181 106.288C13.6181 106.511 13.5799 106.708 13.5036 106.881C13.4294 107.053 13.3236 107.199 13.1862 107.319C13.051 107.439 12.8918 107.529 12.7086 107.591C12.5254 107.652 12.3258 107.682 12.1099 107.682C11.9027 107.682 11.7075 107.653 11.5243 107.594C11.3433 107.535 11.183 107.45 11.0434 107.339C10.9038 107.225 10.7948 107.087 10.7163 106.923C10.6377 106.757 10.5985 106.569 10.5985 106.357H11.2037C11.2037 106.523 11.2397 106.668 11.3117 106.792C11.3858 106.917 11.4905 107.014 11.6257 107.083C11.7631 107.151 11.9245 107.185 12.1099 107.185C12.2953 107.185 12.4545 107.153 12.5875 107.09C12.7228 107.025 12.8264 106.926 12.8983 106.796C12.9725 106.665 13.0096 106.5 13.0096 106.302C13.0096 106.103 12.9681 105.941 12.8853 105.814C12.8024 105.685 12.6846 105.591 12.5319 105.529C12.3814 105.466 12.2037 105.435 11.9987 105.435H11.5668ZM17.6714 106.014V106.511H14.2298V106.154L16.3628 102.853H16.8568L16.3269 103.809L14.9168 106.014H17.6714ZM17.0073 102.853V107.617H16.4021V102.853H17.0073Z" fill="#8794BA"/>
<path d="M3.28345 134.094V138.883H2.67822V134.85L1.45796 135.295V134.748L3.18858 134.094H3.28345ZM8.06636 137.594C8.06636 137.884 7.99875 138.131 7.86353 138.334C7.73049 138.534 7.54946 138.687 7.32046 138.792C7.09364 138.896 6.83737 138.949 6.55166 138.949C6.26595 138.949 6.00859 138.896 5.77959 138.792C5.55059 138.687 5.36956 138.534 5.23652 138.334C5.10348 138.131 5.03696 137.884 5.03696 137.594C5.03696 137.405 5.07295 137.231 5.14492 137.074C5.21908 136.915 5.32267 136.777 5.45571 136.659C5.59094 136.541 5.75015 136.45 5.93335 136.387C6.11873 136.322 6.32266 136.289 6.54512 136.289C6.83737 136.289 7.098 136.346 7.327 136.459C7.55601 136.57 7.73594 136.724 7.8668 136.92C7.99984 137.117 8.06636 137.341 8.06636 137.594ZM7.45786 137.581C7.45786 137.405 7.41969 137.249 7.34336 137.113C7.26703 136.976 7.16016 136.869 7.02275 136.793C6.88535 136.717 6.72614 136.678 6.54512 136.678C6.35973 136.678 6.19943 136.717 6.06421 136.793C5.93117 136.869 5.82757 136.976 5.75342 137.113C5.67927 137.249 5.64219 137.405 5.64219 137.581C5.64219 137.765 5.67817 137.922 5.75015 138.052C5.8243 138.181 5.92899 138.28 6.06421 138.35C6.20161 138.418 6.3641 138.452 6.55166 138.452C6.73923 138.452 6.90062 138.418 7.03584 138.35C7.17106 138.28 7.27466 138.181 7.34663 138.052C7.42079 137.922 7.45786 137.765 7.45786 137.581ZM7.95513 135.36C7.95513 135.591 7.89406 135.799 7.77192 135.985C7.64979 136.17 7.48294 136.316 7.27139 136.423C7.05983 136.53 6.81992 136.584 6.55166 136.584C6.27904 136.584 6.03586 136.53 5.82212 136.423C5.61056 136.316 5.44481 136.17 5.32485 135.985C5.2049 135.799 5.14492 135.591 5.14492 135.36C5.14492 135.083 5.2049 134.847 5.32485 134.653C5.44699 134.459 5.61384 134.311 5.82539 134.208C6.03695 134.106 6.27795 134.055 6.54839 134.055C6.82101 134.055 7.0631 134.106 7.27466 134.208C7.48622 134.311 7.65197 134.459 7.77192 134.653C7.89406 134.847 7.95513 135.083 7.95513 135.36ZM7.3499 135.37C7.3499 135.211 7.3161 135.07 7.24849 134.948C7.18088 134.826 7.08709 134.73 6.96714 134.66C6.84719 134.588 6.7076 134.552 6.54839 134.552C6.38918 134.552 6.24959 134.586 6.12964 134.653C6.01187 134.719 5.91917 134.813 5.85156 134.935C5.78613 135.057 5.75342 135.202 5.75342 135.37C5.75342 135.533 5.78613 135.676 5.85156 135.798C5.91917 135.92 6.01296 136.015 6.13291 136.083C6.25287 136.151 6.39245 136.184 6.55166 136.184C6.71087 136.184 6.84937 136.151 6.96714 136.083C7.08709 136.015 7.18088 135.92 7.24849 135.798C7.3161 135.676 7.3499 135.533 7.3499 135.37ZM10.1568 136.61V137.107H8.56035V136.61H10.1568ZM13.8045 138.386V138.883H10.6868V138.448L12.2473 136.711C12.4392 136.497 12.5875 136.316 12.6922 136.168C12.7991 136.018 12.8733 135.883 12.9147 135.766C12.9583 135.646 12.9801 135.524 12.9801 135.399C12.9801 135.242 12.9474 135.1 12.882 134.974C12.8187 134.845 12.725 134.743 12.6006 134.666C12.4763 134.59 12.3258 134.552 12.1492 134.552C11.9376 134.552 11.761 134.593 11.6192 134.676C11.4796 134.757 11.3749 134.87 11.3051 135.016C11.2353 135.163 11.2004 135.331 11.2004 135.52H10.5952C10.5952 135.252 10.6541 135.007 10.7719 134.784C10.8896 134.562 11.0641 134.385 11.2953 134.254C11.5265 134.121 11.8111 134.055 12.1492 134.055C12.4501 134.055 12.7075 134.108 12.9212 134.215C13.135 134.32 13.2986 134.468 13.412 134.66C13.5276 134.85 13.5854 135.072 13.5854 135.327C13.5854 135.467 13.5614 135.609 13.5134 135.753C13.4676 135.894 13.4032 136.036 13.3204 136.178C13.2397 136.32 13.1448 136.459 13.0357 136.597C12.9289 136.734 12.8144 136.869 12.6922 137.002L11.4164 138.386H13.8045ZM17.6714 137.28V137.778H14.2298V137.421L16.3628 134.12H16.8568L16.3269 135.075L14.9168 137.28H17.6714ZM17.0073 134.12V138.883H16.4021V134.12H17.0073Z" fill="#8794BA"/>
<path d="M24.2749 4.02502H167.487C169.183 4.02502 170.558 5.39988 170.558 7.09586C170.558 8.79183 169.183 10.1667 167.487 10.1667H24.2749V4.02502Z" fill="#EF2A82"/>
<path d="M24.2749 35.85H118.912C120.608 35.85 121.983 37.2249 121.983 38.9209C121.983 40.6168 120.608 41.9917 118.912 41.9917H24.2749V35.85Z" fill="#EF2A82"/>
<path d="M24.2749 67.675H30.1374C31.8334 67.675 33.2082 69.0498 33.2082 70.7458C33.2082 72.4418 31.8334 73.8167 30.1374 73.8167H24.2749V67.675Z" fill="#EF2A82"/>
<path d="M24.2749 99.5H48.0041C49.7 99.5 51.0749 100.875 51.0749 102.571C51.0749 104.267 49.7 105.642 48.0041 105.642H24.2749V99.5Z" fill="#EF2A82"/>
<path d="M24.2749 131.325H137.337C139.033 131.325 140.408 132.7 140.408 134.396C140.408 136.092 139.033 137.467 137.337 137.467H24.2749V131.325Z" fill="#EF2A82"/>
<path d="M24.2749 11.8417H103.837C105.533 11.8417 106.908 13.2165 106.908 14.9125C106.908 16.6085 105.533 17.9833 103.837 17.9833H24.2749V11.8417Z" fill="#0088F0"/>
<path d="M24.2749 43.6667H137.337C139.033 43.6667 140.408 45.0415 140.408 46.7375C140.408 48.4335 139.033 49.8084 137.337 49.8084H24.2749V43.6667Z" fill="#0088F0"/>
<path d="M24.2749 75.4917H48.0041C49.7 75.4917 51.0749 76.8666 51.0749 78.5625C51.0749 80.2585 49.7 81.6334 48.0041 81.6334H24.2749V75.4917Z" fill="#0088F0"/>
<path d="M24.2749 107.317H210.479C212.175 107.317 213.55 108.692 213.55 110.387C213.55 112.083 212.175 113.458 210.479 113.458H24.2749V107.317Z" fill="#0088F0"/>
<path d="M24.2749 139.142H242.304C244 139.142 245.375 140.517 245.375 142.213C245.375 143.909 244 145.283 242.304 145.283H24.2749V139.142Z" fill="#0088F0"/>
</svg>
